<?xml version="1.0" encoding="UTF-8"?>
<svg width="450px" height="630px" viewBox="0 0 450 630" version="1.1" xmlns="http://www.w3.org/2000/svg" xmlns:xlink="http://www.w3.org/1999/xlink">
    <title>default_Vec</title>
    <defs>
        <rect id="path-1" x="0" y="0" width="450" height="630" rx="20"></rect>
    </defs>
    <g id="illustrations" stroke="none" stroke-width="1" fill="none" fill-rule="evenodd">
        <g id="default_Vec">
            <mask id="mask-2" fill="white">
                <use xlink:href="#path-1"></use>
            </mask>
            <use id="Rectangle" fill="#F9F0EF" xlink:href="#path-1"></use>
            <g id="Group-3" mask="url(#mask-2)" fill="#F7C835">
                <g transform="translate(13.048615, 546.735436) rotate(63.000000) translate(-13.048615, -546.735436) translate(-112.451385, 482.838723)" id="Rectangle">
                    <rect x="-1.13686838e-13" y="32.7934254" width="251" height="95"></rect>
                    <polygon points="126 3.69623163e-12 151 32.7934254 101 32.7934254"></polygon>
                    <polygon points="176 3.01411061e-12 201 32.7934254 151 32.7934254"></polygon>
                    <polygon points="226 2.85626501e-13 251 32.7934254 201 32.7934254"></polygon>
                    <polygon points="76 2.33198958e-12 101 32.7934254 51 32.7934254"></polygon>
                    <polygon points="25.4629249 0.0635775681 50.4629249 32.857003 0.462924918 32.857003"></polygon>
                </g>
            </g>
            <path d="M385.06754,569.816999 C429.976553,535.844378 405.784781,484 450,484 C479.039176,484 479.470315,531.232305 451.293417,625.696916 L451.29389,625.697058 C450.495425,628.370704 448.361574,630.435141 445.662992,631.144781 C319.887725,664.174301 257,663.792476 257,630 C257,578.732002 340.158526,603.789621 385.06754,569.816999 Z" id="Rectangle" fill="#53B4BB" mask="url(#mask-2)"></path>
            <rect id="Rectangle" stroke="#000000" stroke-width="4" mask="url(#mask-2)" x="25" y="25" width="400" height="580" rx="15"></rect>
            <g id="Group" mask="url(#mask-2)">
                <g transform="translate(401.172992, 421.056195) rotate(23.000000) translate(-401.172992, -421.056195) translate(359.410289, 379.871154)">
                    <path d="M27.8165231,46.3291876 C27.8165231,46.3291876 4.08807645,50.9859537 7.83496373,65.7909555 C11.5873693,80.5959572 41.098935,59.9535234 30.5921996,57.3340924 C26.0562035,56.2028497 24.1524095,79.3054619 35.1502686,81.0407663 C46.1481278,82.7705791 51.3187219,42.6883433 27.8165231,46.3291876" id="Fill-1054" fill="#FFFFFF"></path>
                    <path d="M44.9120555,59.7914916 L44.9120555,59.7914916 C45.7388789,67.8573323 43.4977524,76.4623779 39.5757809,80.2646074 C37.8786171,81.9155755 35.9149116,82.6159862 33.9022494,82.2935749 C28.767241,81.4597526 25.3620341,76.6180247 24.5569693,69.0024482 C20.237905,71.4538856 14.7330019,73.2271476 10.5771265,71.6317677 C8.03682043,70.658975 6.30157924,68.5466253 5.55635027,65.5281888 C1.42767297,48.8795377 25.6231363,43.8321337 26.6077089,43.6375752 C31.3837018,42.8760175 35.3600696,43.7431927 38.4878554,46.2057477 C42.0127341,48.9795964 44.2973776,53.8046479 44.9120555,59.7914916 M28.0328913,68.5466253 C28.3211915,71.3538269 29.5233492,77.963258 34.4516518,78.7581685 C35.3709488,78.9082565 36.2576081,78.5524924 37.1714655,77.6686408 C40.2557344,74.6724395 42.1269662,66.9845983 41.4306939,60.1694911 C40.9139293,55.1609987 39.1079729,51.2086812 36.3500818,49.0407434 C34.0110419,47.2007756 30.9376524,46.5670707 27.2169471,47.1563051 C27.0809565,47.189658 5.6814617,51.6311512 8.95067786,64.6554548 C9.41848582,66.5398931 10.3486621,67.7239207 11.8064823,68.285361 C14.6677264,69.3804476 19.7592178,68.0018614 24.4100993,64.9278367 C24.5352108,61.2312247 25.3729134,57.045437 27.4127737,55.4167042 C28.2178386,54.7774405 29.1752131,54.5550879 30.110829,54.7941169 C32.9285561,55.5167629 33.5214755,57.3289366 33.630268,58.3461997 C33.9675249,61.6592535 30.2087423,65.0556895 27.9077798,66.7955986 C27.934978,67.3792742 27.9730554,67.9629497 28.0328913,68.5466253 M28.2232782,61.8204591 C29.5940644,60.3974025 30.197863,59.241169 30.1489064,58.7241992 C30.1380271,58.6241405 29.8551665,58.4184643 29.2568075,58.2683763 C29.1425753,58.457376 28.5931729,59.6691977 28.2232782,61.8204591" id="Fill-1056" fill="#261C29"></path>
                    <path d="M28.7556182,30.7677896 C28.7556182,30.7677896 14.7838354,10.9861863 27.803877,2.80183793 C40.8239185,-5.37698798 47.8679104,30.0332968 38.4279653,24.6764695 C34.3498647,22.3680636 49.0409868,4.24321103 58.2263965,10.5885662 C67.4062728,16.9283988 43.2696722,49.6547475 28.7556182,30.7677896" id="Fill-1058" fill="#FFFFFF"></path>
                    <path d="M61.0850429,14.0349891 C61.901583,21.5843958 53.1713145,33.2922355 44.0998888,36.8138405 C37.232003,39.4754554 30.8339074,37.6248438 26.0744849,31.5940273 C25.7948478,31.202133 20.1238086,23.29349 19.251341,15.1780139 C18.5969903,9.15264029 20.7893447,4.4226948 25.5879164,1.48348816 C28.2388756,-0.143961435 30.9960969,-0.437882099 33.5575722,0.62894105 C37.7577206,2.37069313 40.6212039,7.42721714 42.131244,12.1462767 C46.9465939,8.17290475 53.1713145,5.73445184 58.3166361,9.1961841 C59.8993818,10.2630072 60.8613332,11.9394436 61.0850429,14.0349891 M22.8306952,14.8078916 C23.6080861,22.0089478 28.92119,29.444052 28.9771174,29.5148107 C32.7242538,34.2719711 37.3774142,35.6490438 42.7688164,33.5589413 C50.9230327,30.3911297 58.0985192,19.9134024 57.5056887,14.3996684 C57.3882411,13.3219593 56.9855638,12.5599428 56.2641002,12.075518 C52.3491816,9.44111798 46.8738883,12.4347544 43.0931954,16.032561 C43.1938648,16.6258453 43.2833486,17.2082437 43.3448688,17.7743131 C43.663655,20.7788354 43.5406147,24.6814487 41.0965869,26.2381396 C40.1681919,26.8259809 38.6078172,27.2723049 36.3874991,26.0476355 C35.4814751,25.5468818 34.9110155,24.6705627 34.7935679,23.5819677 C34.5195236,21.0346553 36.7789909,17.56748 39.1894623,14.938523 C37.8695754,9.54453451 35.0396485,5.05407993 32.1482015,3.8511824 C30.6773106,3.24156917 29.1560851,3.43207331 27.5006338,4.44990968 C23.848574,6.68697251 22.316163,10.0779461 22.8306952,14.8078916 M38.3729221,23.2172883 C38.8035631,23.3533627 39.0943857,23.3261478 39.1279421,23.3098189 C39.4243574,23.1193148 39.9053331,22.0307197 39.8717767,19.7882139 C38.7811922,21.3993346 38.3169947,22.6675478 38.3729221,23.2172883" id="Fill-1060" fill="#261C29"></path>
                    <path d="M45.7623884,48.5408506 C45.7623884,48.5408506 49.1324015,61.8009214 60.8254093,62.6842036 C72.5239327,63.5729047 84.7409197,59.3298988 83.4282141,51.0985757 C82.1155085,42.8672527 73.456064,32.4358525 61.5755268,33.9477282 C49.6949896,35.4541849 44.2897313,44.7421953 45.7623884,48.5408506" id="Fill-1062" fill="#E3BF1C"></path>
                    <path d="M52.1676413,58.3634571 C52.1676413,58.3634571 59.0496413,38.0234571 57.6756413,34.3634571" id="Fill-1064" fill="#FFFFFF"></path>
                    <path d="M59.0054488,34.696789 C59.5556365,39.8374498 55.0860704,54.6376676 53.6226845,59.2953506 C53.3277385,60.2391004 52.3067716,60.7720415 51.3425251,60.4778136 C50.3839507,60.1891372 49.833763,59.1898727 50.134381,58.2461229 C53.1745935,48.553257 56.0333007,36.8729651 55.3583282,34.9188478 C55.0236779,34.0028553 55.5455054,32.970282 56.4927358,32.6538482 C57.4513103,32.3374144 58.4892933,32.8370467 58.8125995,33.7696936 C58.9033521,34.0250612 58.9657445,34.3359435 59.0054488,34.696789" id="Fill-1066" fill="#261C29"></path>
                    <path d="M61.6593493,62.8003847 C61.6593493,62.8003847 68.8953493,38.5065251 67.1073493,33.8003847" id="Fill-1068" fill="#FFFFFF"></path>
                    <path d="M69.0268659,33.2248414 C69.7326376,39.9058136 64.7414206,58.4578422 63.6630015,62.3588125 C63.3976314,63.3172406 62.3982588,63.8833297 61.4327632,63.6199021 C60.4616214,63.3564745 59.891358,62.3644174 60.1623743,61.4003845 C62.9233529,51.4013455 66.3618723,35.9880287 65.3286226,33.0847203 C64.9672675,32.1487116 65.4923616,31.1174206 66.4409187,30.7867349 C67.3838296,30.4560492 68.4227254,30.9548802 68.7558496,31.8908888 C68.8800654,32.2552036 68.9704042,32.703591 69.0268659,33.2248414" id="Fill-1070" fill="#261C29"></path>
                    <path d="M24.7648869,40.469915 C24.7648869,40.469915 11.027609,35.3470112 1.76488686,48.4865346" id="Fill-1072" fill="#FFFFFF"></path>
                    <path d="M25.9898234,41.1429805 C26.0171849,41.3969171 25.9898234,41.6621399 25.9022666,41.9217196 C25.5903457,42.8697498 24.5889152,43.3719802 23.6640969,43.0559701 C23.1661178,42.8753929 11.3076488,38.8801226 3.16486988,49.9235463 C2.57386173,50.7248576 1.46845761,50.8772196 0.69686364,50.2734146 C-0.080202626,49.6583236 -0.227954663,48.5240731 0.357581186,47.7284049 C10.0709095,34.5575561 24.6655274,39.5685731 24.8132794,39.6193604 C25.4808997,39.856368 25.9186835,40.465816 25.9898234,41.1429805" id="Fill-1074" fill="#261C29"></path>
                    <path d="M70.6326579,59.4360503 C70.6326579,59.4360503 77.4246579,42.0180353 74.9466579,36.4360503" id="Fill-1076" fill="#FFFFFF"></path>
                    <path d="M77.4010327,39.0277424 C78.2388688,46.2729294 73.0380787,59.679911 72.374016,61.350141 C71.9954383,62.2924667 70.8534987,62.7833789 69.8170644,62.4448188 C68.7744239,62.100616 68.2344851,61.0567222 68.6130629,60.1200391 C71.2258703,53.5294017 74.7385757,41.7136528 73.1125531,38.0572033 C72.7029443,37.1205202 73.1808212,36.0709838 74.1986369,35.6872823 C75.2164526,35.3092235 76.3894231,35.7493517 76.8052381,36.680392 C77.1093416,37.346227 77.2955274,38.1418433 77.4010327,39.0277424" id="Fill-1078" fill="#261C29"></path>
                    <path d="M8.89043073,19.6126602 C8.89043073,19.6126602 9.31940269,33.1970843 25.8904307,36.6126602" id="Fill-1080" fill="#FFFFFF"></path>
                    <path d="M28.8020089,36.2014962 C28.8183565,36.3774333 28.8129073,36.5590459 28.7802121,36.7463338 C28.5894897,37.7338521 27.6740222,38.3808468 26.7204103,38.1878835 C8.51459638,34.4591507 7.83344501,19.2547746 7.81164816,19.1072144 C7.78440211,18.0969946 8.54184244,17.2570365 9.50635278,17.2229841 C10.4708631,17.1889318 11.2827956,17.9834867 11.32094,18.9823558 C11.3427369,19.5669212 12.0456851,31.4625435 27.3961125,34.6010355 C28.1699004,34.7599465 28.7257199,35.4239674 28.8020089,36.2014962" id="Fill-1082" fill="#261C29"></path>
                </g>
            </g>
            <g id="Group-1086" mask="url(#mask-2)">
                <g transform="translate(0.000000, 102.000000)">
                    <path d="M112.25736,38 C112.25736,38 90.4721425,18.2224573 97.3385435,5.41484719 C104.633574,-8.20503288 112.694313,11.6176359 112.694313,11.6176359 C112.694313,11.6176359 116.522852,-4.20111633 124.962283,1.07863838 C136.298087,8.17574456 112.25736,38 112.25736,38" id="Fill-1034" fill="#CA3B66"></path>
                    <path d="M60.6102023,72.4814178 C60.6102023,72.4814178 58.1582666,30.3072421 53.3986267,19.3287641 C48.6348659,8.35440871 25.017986,38.1360554 36.7501893,67.4765841 C36.7501893,67.4765841 20.3201596,28.699429 16.9327795,29.2724701 C0.914839877,31.989262 1.70193184,85.9252093 24.5564452,90.4147184 L0,94.0055011 C0,94.0055011 28.4259706,129.130034 47.0854074,122.059779 C64.4343978,115.488358 71.0484429,89.3675785 71.0484429,89.3675785 C71.0484429,89.3675785 77.3905085,97.0026297 87.5155607,89.8293095 C97.6447337,82.6518667 101.74915,60.5794779 82.2696545,54.7501246 C67.8258988,50.4296421 55.0469868,62.4016662 60.6102023,72.4814178" id="Fill-1036" fill="#49A2A0"></path>
                    <path d="M90.5107949,88.9871788 C90.6039112,88.974902 90.692979,88.9503483 90.7860953,88.91761 C111.858725,80.9294685 112.607704,79.2393545 112.854665,78.6828037 C113.053043,78.2326523 113.048995,77.7293011 112.838471,77.2627806 C111.919453,75.1879918 103.340605,72.196531 96.3042498,70.0562656 C95.6119502,69.8434668 94.8710681,70.2526953 94.6686413,70.9729376 C94.4662145,71.6931799 94.8670196,72.4502527 95.5674163,72.6630516 C101.17059,74.3736269 107.575374,76.6898606 109.793972,77.9789306 C107.202909,79.4480611 98.1503822,83.2211484 89.8630291,86.3640238 C89.174778,86.6218378 88.8266039,87.4034643 89.0857102,88.1073374 C89.3043312,88.7211803 89.907563,89.0731168 90.5107949,88.9871788" id="Fill-1038" fill="#261C29"></path>
                    <path d="M81.3667191,75.975726 C81.4622607,75.9634256 81.5619563,75.942925 81.6616519,75.9183243 C85.3088501,74.9875972 85.1302288,66.7668578 84.8892977,63.2735561 C84.8352959,62.5232343 84.1872743,61.9574178 83.4395572,62.0025191 C82.700148,62.0476204 82.1268982,62.6995394 82.1809,63.4539614 C82.5298346,68.4479068 81.8111954,73.0277401 80.9803985,73.2737473 C80.0249822,73.1548438 77.9147582,69.0096231 76.660255,64.7495991 C76.4442478,64.0279781 75.7048386,63.6343666 74.9695834,63.818872 C74.2550981,64.0320782 73.8438537,64.7906003 74.0557069,65.5122213 C75.0485091,68.8743192 77.711213,76.4841408 81.3667191,75.975726" id="Fill-1040" fill="#261C29"></path>
                    <path d="M42.6363846,76.9877289 C42.7775896,76.9672115 42.922611,76.9179698 43.052367,76.8400037 C43.6591669,76.4788975 43.8805153,75.6540981 43.5561254,74.9934378 C40.6595143,69.1459793 44.3079467,50.4423191 45.9566108,43.724923 C46.1359793,42.9986071 45.7428951,42.2476703 45.0788498,42.0465998 C44.4071719,41.8537362 43.7278613,42.2763946 43.5484927,43.0027105 C43.2966135,44.0326839 37.4041662,68.2842486 41.3655394,76.2819304 C41.621235,76.7989689 42.1364425,77.0615916 42.6363846,76.9877289" id="Fill-1042" fill="#261C29"></path>
                    <path d="M35.862236,79.9868895 C36.4151011,79.90908 36.8825972,79.4708894 36.9801617,78.8729844 C37.1061824,78.1358414 36.6183603,77.4273649 35.8988227,77.3004125 C24.9838034,75.3265072 14.6379098,52.0450714 14.5362802,51.8116428 C14.2354566,51.1277378 13.4468109,50.8083091 12.7801207,51.1195473 C12.1134305,51.4266903 11.8166721,52.2293572 12.1174957,52.9173574 C12.5606007,53.9288815 23.1504053,77.7590793 35.4516524,79.9786991 C35.5898687,80.0032705 35.728085,80.0073657 35.862236,79.9868895" id="Fill-1044" fill="#261C29"></path>
                    <path d="M55.7083082,110.973536 C59.1314247,110.512857 61.4678375,104.944657 61.9108783,103.806982 C62.1783745,103.121973 61.823106,102.352841 61.1209283,102.088451 C60.4103913,101.828068 59.6288006,102.160557 59.3613043,102.849572 C58.4919414,105.064834 56.6320063,108.161395 55.3446805,108.333648 C55.3196027,108.337654 55.2987046,108.337654 55.2778064,108.34166 C54.5338324,108.337654 53.9528639,109.014651 54.0030194,109.747731 C54.053175,110.48081 54.6968379,111.041636 55.4491712,110.997571 C55.5411231,110.993565 55.6247156,110.985553 55.7083082,110.973536" id="Fill-1046" fill="#261C29"></path>
                    <path d="M45.7083394,108.973536 C49.1314389,108.512857 51.4678402,102.944657 51.9108787,101.806982 C52.1783737,101.121973 51.8231069,100.352841 51.1209327,100.088451 C50.4103992,99.8280679 49.6288124,100.160557 49.3613174,100.849572 C48.4752404,103.104893 46.460669,106.217477 45.2778397,106.34166 C44.5255102,106.349672 43.9529038,107.014651 44.0030591,107.747731 C44.0532144,108.48081 44.6968741,109.041636 45.4492037,108.997571 C45.5411551,108.993565 45.6247473,108.985553 45.7083394,108.973536" id="Fill-1048" fill="#261C29"></path>
                    <path d="M42.5618469,117.961936 C45.6796551,117.550582 48.962898,113.996165 49.6755399,113.181445 C50.1676022,112.626317 50.0912477,111.787635 49.5058633,111.316375 C48.916237,110.841122 48.0424023,110.909015 47.5545819,111.468137 C45.9341701,113.305251 43.0157319,115.673531 41.7558829,115.322083 C41.0177895,115.130384 40.2500027,115.529756 40.0506327,116.236646 C39.8470207,116.939542 40.2754542,117.674387 41.0135476,117.878068 C41.5140937,118.009861 42.0358493,118.029829 42.5618469,117.961936" id="Fill-1050" fill="#261C29"></path>
                    <path d="M31.5627456,114.961929 C34.6816476,114.550497 37.9617989,110.999404 38.6789342,110.18453 C39.1669256,109.629297 39.0905443,108.790456 38.5049546,108.315113 C37.9193648,107.839769 37.0409802,107.91167 36.5572321,108.466903 C34.9362518,110.308358 32.0125464,112.673091 30.7564988,112.321577 C30.0181465,112.129842 29.2500904,112.52929 29.0506504,113.236313 C28.846967,113.939342 29.2755508,114.674326 30.0139031,114.878045 C30.5146248,115.009862 31.0365635,115.029835 31.5627456,114.961929" id="Fill-1052" fill="#261C29"></path>
                </g>
            </g>
            <g id="Group-1033" mask="url(#mask-2)" fill="#261A29">
                <g transform="translate(334.000000, 57.000000)">
                    <path d="M94.7500113,123 C93.7545278,123 92.8430007,122.327373 92.5791376,121.303284 L74.0727391,49.8472969 C73.7609009,48.6292971 74.4805275,47.3870585 75.6799052,47.0780138 C76.8672892,46.75079 78.114642,47.4840137 78.4264803,48.6959538 L96.9268819,120.151941 C97.2387201,121.363881 96.5250903,122.606119 95.3197157,122.921224 C95.1338122,122.975761 94.9419117,123 94.7500113,123" id="Fill-1017"></path>
                    <path d="M46.2861916,96 C45.2925471,96 44.3781503,95.3549042 44.0916394,94.3507457 C43.7380726,93.1396697 44.4391101,91.8738215 45.6522098,91.5269303 L113.079827,72.0888562 C114.299022,71.7419651 115.56089,72.4418332 115.908361,73.6468234 C116.261927,74.8578994 115.56089,76.1237476 114.34779,76.4767246 L46.9201733,95.9087129 C46.7068141,95.969571 46.4934548,96 46.2861916,96" id="Fill-1019"></path>
                    <path d="M113.731116,103 C113.302551,103 112.86795,102.872819 112.481637,102.624512 L56.0136694,65.1605447 C54.9754556,64.4701321 54.6857215,63.0590257 55.3738399,62.0112943 C56.0619584,60.9756754 57.4563037,60.6849754 58.512626,61.3753879 L114.980594,98.8393557 C116.024844,99.5297683 116.314578,100.934818 115.62646,101.98255 C115.185822,102.636625 114.467523,103 113.731116,103" id="Fill-1021"></path>
                    <path d="M67.2865589,114 C66.9080775,114 66.5173871,113.903155 66.1633239,113.703412 C65.0645071,113.092078 64.6738167,111.705985 65.2964795,110.610426 L99.7138638,50.1489053 C100.336527,49.0593995 101.734466,48.6780724 102.839387,49.2954591 C103.938204,49.9067929 104.32279,51.2928864 103.706232,52.3823923 L69.2827427,112.849966 C68.8615296,113.588409 68.0862533,114 67.2865589,114" id="Fill-1023"></path>
                    <path d="M30.6762159,47 C29.6480825,47 28.706659,46.327557 28.4341417,45.3037473 L17.0751248,2.84896597 C16.7530589,1.63735692 17.4962879,0.395457634 18.7350029,0.080439279 C19.973718,-0.252753212 21.2495945,0.480270268 21.5716604,1.70399541 L32.9244837,44.1527187 C33.2465497,45.3703858 32.5095142,46.6122851 31.2646056,46.9212454 C31.0664112,46.9757678 30.8744103,47 30.6762159,47" id="Fill-1025"></path>
                    <path d="M2.25317849,31 C1.27388245,31 0.372689771,30.3594368 0.090316066,29.3623338 C-0.258145102,28.1597671 0.432769282,26.902813 1.62835156,26.5583592 L41.1186146,15.0886528 C42.3141969,14.744199 43.5638507,15.4331066 43.9123119,16.6417163 C44.2547651,17.83824 43.5638507,19.0951941 42.3682684,19.4456909 L2.87800541,30.9093543 C2.66772712,30.9697848 2.45744883,31 2.25317849,31" id="Fill-1027"></path>
                    <path d="M41.7360092,35 C41.3084249,35 40.8748183,34.8719044 40.4893903,34.6218129 L7.01134964,12.1989787 C5.97551172,11.5036024 5.68644068,10.082351 6.37298441,9.02708701 C7.05952815,7.97182304 8.45068256,7.67903304 9.50458742,8.38660888 L42.9886504,30.8094431 C44.0244883,31.5048194 44.3135593,32.919971 43.6270156,33.975235 C43.1873867,34.6340125 42.4707314,35 41.7360092,35" id="Fill-1029"></path>
                    <path d="M14.28358,42 C13.9055917,42 13.5154103,41.9018863 13.1618083,41.6995269 C12.0644231,41.0801844 11.6742416,39.6759327 12.2960933,38.5660219 L32.7196526,2.16585372 C33.3415043,1.06207503 34.7437188,0.675752495 35.8350075,1.29509498 C36.9384894,1.92056957 37.3225742,3.31868923 36.7068191,4.42860002 L16.2771632,40.8349003 C15.8564989,41.5830169 15.0822326,42 14.28358,42" id="Fill-1031"></path>
                </g>
            </g>
            <g id="Group-4" mask="url(#mask-2)">
                <g transform="translate(75.000000, 270.000000)">
                    <g id="L" transform="translate(0.000000, 1.757812)">
                        <path d="M18.0664062,82.2265625 L20.5078125,82.2265625 L13.7695312,89.0625 L11.8164062,89.0625 L11.8164062,88.671875 L18.0664062,82.2265625 Z M25.8789062,82.2265625 L25.8789062,82.8125 L19.6289062,89.0625 L17.1875,89.0625 L23.9257812,82.2265625 L25.8789062,82.2265625 Z M32.3242188,82.2265625 L25.8789062,88.671875 C25.6184896,88.9322917 25.3092448,89.0625 24.9511719,89.0625 C24.593099,89.0625 24.2513021,89.0625 23.9257812,89.0625 L22.65625,89.0625 L28.90625,82.8125 L32.3242188,82.2265625 Z M37.3046875,82.8125 L30.9570312,89.0625 L28.4179688,89.0625 L34.765625,82.8125 L37.3046875,82.8125 Z M40.5273438,82.2265625 L43.0664062,82.2265625 L36.4257812,89.0625 L34.2773438,88.671875 L40.5273438,82.2265625 Z M7.51953125,81.5429688 C8.17057292,81.8684896 8.88671875,82.0963542 9.66796875,82.2265625 L3.41796875,88.671875 L0.87890625,88.671875 L0.87890625,88.1835938 L7.51953125,81.5429688 Z M15.0390625,82.2265625 L8.7890625,88.671875 L6.25,88.671875 L12.5,82.2265625 L15.0390625,82.2265625 Z M6.8359375,76.8554688 L6.8359375,77.9296875 C6.8359375,78.2552083 6.81966146,78.5807292 6.78710938,78.90625 C6.75455729,79.2317708 6.57552083,79.5247396 6.25,79.7851562 L0.390625,85.6445312 L0.390625,83.1054688 L6.8359375,76.8554688 Z M9.27734375,80.2734375 C8.82161458,79.8828125 8.52864583,79.4596354 8.3984375,79.0039062 L8.3984375,71.2890625 C8.3984375,60.2213542 8.49609375,49.2513021 8.69140625,38.3789062 C8.88671875,27.5065104 8.91927083,16.5039062 8.7890625,5.37109375 L9.27734375,1.26953125 C9.27734375,1.07421875 9.47265625,0.87890625 9.86328125,0.68359375 C10.2539062,0.48828125 10.4817708,0.390625 10.546875,0.390625 C10.7421875,0.325520833 11.0351562,0.244140625 11.4257812,0.146484375 C11.8164062,0.048828125 12.0768229,0 12.2070312,0 L25.8789062,0 C26.0742188,0 26.2695312,0.130208333 26.4648438,0.390625 C26.6601562,0.651041667 26.8391927,0.944010417 27.0019531,1.26953125 C27.1647135,1.59505208 27.3111979,1.92057292 27.4414062,2.24609375 C27.5716146,2.57161458 27.6367188,2.79947917 27.6367188,2.9296875 C28.1575521,6.25 28.4342448,9.60286458 28.4667969,12.9882812 C28.499349,16.3736979 28.515625,19.7591146 28.515625,23.1445312 C28.515625,23.7304688 28.499349,24.5279948 28.4667969,25.5371094 C28.4342448,26.546224 28.4179688,27.0833333 28.4179688,27.1484375 C28.4179688,27.2786458 28.4016927,27.6041667 28.3691406,28.125 C28.3365885,28.6458333 28.2877604,29.2154948 28.2226562,29.8339844 C28.1575521,30.452474 28.108724,31.0221354 28.0761719,31.5429687 C28.0436198,32.0638021 28.0273438,32.3893229 28.0273438,32.5195312 L28.0273438,41.796875 C28.0273438,42.0572917 27.9947917,42.6106771 27.9296875,43.4570312 C27.8645833,44.3033854 27.7669271,44.8567708 27.6367188,45.1171875 L27.6367188,61.9140625 C28.1575521,61.9140625 29.0690104,61.9303385 30.3710938,61.9628906 C31.6731771,61.9954427 33.0566406,62.0279948 34.5214844,62.0605469 C35.9863281,62.093099 37.3697917,62.125651 38.671875,62.1582031 C39.9739583,62.1907552 40.8854167,62.2395833 41.40625,62.3046875 C41.8619792,62.3697917 42.4153646,62.4023438 43.0664062,62.4023438 C43.7174479,62.4023438 44.3684896,62.4348958 45.0195312,62.5 C45.7356771,62.5651042 46.484375,62.6302083 47.265625,62.6953125 L48.1445312,63.4765625 C48.2096354,64.3229167 48.2747396,65.1367188 48.3398438,65.9179688 C48.4049479,66.6341146 48.4375,67.3339844 48.4375,68.0175781 C48.4375,68.7011719 48.4700521,69.2708333 48.5351562,69.7265625 L48.5351562,70.6054688 L48.5351562,71.484375 C48.4700521,72.2005208 48.4375,73.046875 48.4375,74.0234375 C48.4375,75 48.4049479,75.9440104 48.3398438,76.8554688 C48.2747396,77.9622396 48.2096354,79.1015625 48.1445312,80.2734375 L46.3867188,80.6640625 L38.3789062,80.6640625 L26.3671875,80.6640625 C25.7161458,80.6640625 24.5768229,80.6477865 22.9492188,80.6152344 C21.3216146,80.5826823 19.6126302,80.5338542 17.8222656,80.46875 C16.031901,80.4036458 14.3229167,80.3548177 12.6953125,80.3222656 C11.0677083,80.2897135 9.92838542,80.2734375 9.27734375,80.2734375 Z M6.8359375,70.9960938 L6.8359375,73.5351562 L0.390625,79.7851562 L0.390625,77.2460938 L6.8359375,70.9960938 Z M6.8359375,65.625 L6.8359375,66.6015625 C6.8359375,66.9270833 6.81966146,67.2688802 6.78710938,67.6269531 C6.75455729,67.985026 6.57552083,68.2942708 6.25,68.5546875 L0.390625,74.4140625 L0,74.4140625 L0,72.265625 L6.8359375,65.625 Z M6.8359375,59.765625 L6.8359375,61.0351562 L6.8359375,62.3046875 C6.70572917,62.3697917 6.47786458,62.5976562 6.15234375,62.9882812 C5.82682292,63.3789062 5.56640625,63.671875 5.37109375,63.8671875 C5.24088542,64.0625 4.98046875,64.3717448 4.58984375,64.7949219 C4.19921875,65.218099 3.79231771,65.641276 3.36914062,66.0644531 C2.94596354,66.4876302 2.5390625,66.8945312 2.1484375,67.2851562 C1.7578125,67.6757812 1.46484375,67.96875 1.26953125,68.1640625 C1.20442708,68.1640625 1.07421875,68.2291667 0.87890625,68.359375 C0.68359375,68.4895833 0.520833333,68.5546875 0.390625,68.5546875 L0.390625,66.015625 L6.8359375,59.765625 Z M6.8359375,54.296875 L6.8359375,56.7382812 L0.390625,63.1835938 L0.390625,60.6445312 L6.8359375,54.296875 Z M6.8359375,50.9765625 L0.390625,57.2265625 L0.390625,56.1523438 C0.390625,55.8268229 0.390625,55.5175781 0.390625,55.2246094 C0.390625,54.9316406 0.553385417,54.6223958 0.87890625,54.296875 L6.8359375,48.5351562 L6.8359375,50.9765625 Z M7.12890625,43.6523438 C7.12890625,43.9778646 7.14518229,44.3033854 7.17773438,44.6289062 C7.21028646,44.9544271 7.09635417,45.2473958 6.8359375,45.5078125 L0.87890625,51.3671875 L0.390625,51.3671875 C0.390625,51.1067708 0.406901042,50.6835938 0.439453125,50.0976562 C0.472005208,49.5117188 0.618489583,49.1210938 0.87890625,48.9257812 L7.12890625,42.6757812 L7.12890625,43.6523438 Z M7.12890625,36.8164062 L7.12890625,37.9882812 C7.12890625,38.3789062 7.14518229,38.7532552 7.17773438,39.1113281 C7.21028646,39.469401 7.09635417,39.8111979 6.8359375,40.1367188 L1.26953125,45.5078125 L0.87890625,45.5078125 L0.87890625,43.0664062 L7.12890625,36.8164062 Z M7.12890625,31.25 L7.12890625,33.8867188 L0.87890625,40.1367188 L0.87890625,37.6953125 L7.12890625,31.25 Z M7.12890625,25.4882812 L7.12890625,28.0273438 L0.87890625,34.2773438 L0.87890625,31.7382812 L7.12890625,25.4882812 Z M7.12890625,20.0195312 L7.12890625,22.5585938 L0.87890625,28.8085938 L0.87890625,26.2695312 L7.12890625,20.0195312 Z M0.390625,21.2890625 C0.520833333,21.2239583 0.618489583,21.077474 0.68359375,20.8496094 C0.748697917,20.6217448 0.813802083,20.5078125 0.87890625,20.5078125 L7.12890625,14.1601562 L7.12890625,15.4296875 C7.12890625,15.7552083 7.14518229,16.0970052 7.17773438,16.4550781 C7.21028646,16.813151 7.09635417,17.1549479 6.8359375,17.4804688 L1.26953125,23.046875 L1.07421875,23.046875 L0.87890625,23.046875 C0.813802083,22.9166667 0.748697917,22.7050781 0.68359375,22.4121094 C0.618489583,22.1191406 0.520833333,21.9075521 0.390625,21.7773438 L0.390625,21.484375 L0.390625,21.2890625 Z M6.8359375,9.1796875 L6.8359375,11.6210938 L0.390625,17.8710938 L0.390625,15.4296875 L6.8359375,9.1796875 Z M7.12890625,3.3203125 L7.12890625,5.37109375 L0.87890625,11.6210938 L0.87890625,9.66796875 L7.12890625,3.3203125 Z" id="Shape" fill="#CA3B66" fill-rule="nonzero"></path>
                    </g>
                    <g id="O" transform="translate(55.707031, 0.488281)">
                        <path d="M46.2890625,83.4960938 L48.828125,83.4960938 L42.1875,90.3320312 L41.6015625,90.3320312 C41.3411458,90.3320312 41.0970052,90.3157552 40.8691406,90.2832031 C40.641276,90.250651 40.3645833,90.1367188 40.0390625,89.9414062 L46.2890625,83.4960938 Z M41.3085938,83.203125 L43.8476562,83.203125 L37.2070312,89.9414062 L36.4257812,89.9414062 C36.2955729,89.9414062 36.0677083,89.9414062 35.7421875,89.9414062 C35.4166667,89.9414062 35.1888021,89.7786458 35.0585938,89.453125 L41.3085938,83.203125 Z M55.078125,83.203125 L49.3164062,89.0625 C49.1210938,89.2578125 48.7792969,89.3717448 48.2910156,89.4042969 C47.8027344,89.436849 47.3632812,89.453125 46.9726562,89.453125 L46.2890625,89.453125 L52.2460938,83.4960938 C52.3763021,83.3658854 52.7018229,83.2845052 53.2226562,83.2519531 C53.7434896,83.219401 54.1666667,83.203125 54.4921875,83.203125 L55.078125,83.203125 Z M36.71875,81.9335938 L36.9140625,81.9335938 C37.2395833,81.9335938 37.5813802,81.9661458 37.9394531,82.03125 C38.297526,82.0963542 38.4765625,82.3567708 38.4765625,82.8125 L38.4765625,83.203125 L32.9101562,88.671875 C32.7148438,88.9322917 32.2591146,89.0625 31.5429688,89.0625 C31.2174479,89.0625 30.9570312,89.046224 30.7617188,89.0136719 C30.5664062,88.9811198 30.3385417,88.8671875 30.078125,88.671875 L36.71875,81.9335938 Z M62.2070312,81.5429688 C62.0768229,81.9986979 61.6536458,82.6009115 60.9375,83.3496094 C60.2213542,84.0983073 59.375,84.8307292 58.3984375,85.546875 C57.421875,86.2630208 56.4453125,86.8815104 55.46875,87.4023438 C54.4921875,87.9231771 53.7434896,88.1835938 53.2226562,88.1835938 L53.125,88.1835938 L58.984375,82.3242188 C59.1145833,82.2591146 59.2773438,82.1940104 59.4726562,82.1289062 C59.6028646,82.0638021 59.7330729,82.03125 59.8632812,82.03125 C59.9934896,82.03125 60.1236979,81.9986979 60.2539062,81.9335938 C60.3841146,81.8684896 60.7096354,81.7871094 61.2304688,81.6894531 C61.7513021,81.5917969 62.0768229,81.5429688 62.2070312,81.5429688 Z M32.6171875,80.6640625 L32.7148438,80.6640625 L32.9101562,80.6640625 C33.0403646,80.7291667 33.1705729,80.7617188 33.3007812,80.7617188 C33.4309896,80.7617188 33.5611979,80.7942708 33.6914062,80.859375 C33.8867188,80.9244792 34.0494792,80.9895833 34.1796875,81.0546875 L34.375,81.25 L34.1796875,81.5429688 L27.9296875,87.7929688 L27.4414062,87.7929688 C27.1158854,87.7929688 26.8391927,87.7766927 26.6113281,87.7441406 C26.3834635,87.7115885 26.1393229,87.5976562 25.8789062,87.4023438 L32.6171875,80.6640625 Z M22.0703125,85.2539062 L28.3203125,79.0039062 L28.515625,79.0039062 C28.5807292,79.0039062 28.6132812,78.9876302 28.6132812,78.9550781 C28.6132812,78.922526 28.6458333,78.90625 28.7109375,78.90625 C28.9713542,78.90625 29.2643229,78.9550781 29.5898438,79.0527344 C29.9153646,79.1503906 30.078125,79.3619792 30.078125,79.6875 L30.078125,79.7851562 L23.828125,86.1328125 L23.4375,86.1328125 C23.1770833,86.1328125 22.8841146,86.1002604 22.5585938,86.0351562 C22.2330729,85.9700521 22.0703125,85.8072917 22.0703125,85.546875 L22.0703125,85.2539062 Z M25.0976562,76.953125 L25.1953125,76.953125 L25.4882812,76.953125 C25.6184896,77.0182292 25.8300781,77.1484375 26.1230469,77.34375 C26.4160156,77.5390625 26.5950521,77.7018229 26.6601562,77.8320312 L20.1171875,84.375 C20.1171875,84.4401042 20.0846354,84.4726562 20.0195312,84.4726562 C19.9544271,84.5377604 19.8893229,84.5703125 19.8242188,84.5703125 C19.5638021,84.5703125 19.2871094,84.4726562 18.9941406,84.2773438 C18.7011719,84.0820312 18.4895833,83.8216146 18.359375,83.4960938 L25.0976562,76.953125 Z M14.9414062,81.0546875 L21.6796875,74.4140625 C21.875,74.4140625 22.1354167,74.5768229 22.4609375,74.9023438 C22.7864583,75.2278646 22.9492188,75.4882812 22.9492188,75.6835938 C22.9492188,75.7486979 22.8352865,75.9440104 22.6074219,76.2695312 C22.3795573,76.5950521 22.2005208,76.8229167 22.0703125,76.953125 C21.875,77.1484375 21.5169271,77.5065104 20.9960938,78.0273438 C20.4752604,78.5481771 19.938151,79.1015625 19.3847656,79.6875 C18.8313802,80.2734375 18.2942708,80.8105469 17.7734375,81.2988281 C17.2526042,81.7871094 16.8945312,82.1289062 16.6992188,82.3242188 L16.5039062,82.3242188 C16.1783854,82.3242188 15.8365885,82.2265625 15.4785156,82.03125 C15.1204427,81.8359375 14.9414062,81.5755208 14.9414062,81.25 L14.9414062,81.0546875 Z M8.30078125,36.0351562 C8.30078125,34.5377604 8.33333333,33.1054688 8.3984375,31.7382812 C8.46354167,30.3710938 8.72395833,28.9713542 9.1796875,27.5390625 C10.0260417,24.609375 11.344401,21.8261719 13.1347656,19.1894531 C14.9251302,16.5527344 16.8294271,14.0299479 18.8476562,11.6210938 C19.7591146,10.5794271 20.703125,9.70052083 21.6796875,8.984375 C22.65625,8.26822917 23.7955729,7.48697917 25.0976562,6.640625 C27.8971354,4.75260417 30.9082031,3.17382812 34.1308594,1.90429688 C37.3535156,0.634765625 40.7226562,0 44.2382812,0 C47.8841146,0 51.3997396,0.29296875 54.7851562,0.87890625 C58.1705729,1.46484375 61.4908854,2.70182292 64.7460938,4.58984375 C64.8763021,4.65494792 65.218099,4.91536458 65.7714844,5.37109375 C66.3248698,5.82682292 66.6666667,6.11979167 66.796875,6.25 C68.8802083,7.74739583 70.9472656,9.1796875 72.9980469,10.546875 C75.0488281,11.9140625 76.9205729,13.5416667 78.6132812,15.4296875 C78.6132812,15.4947917 78.7434896,15.6738281 79.0039062,15.9667969 C79.2643229,16.2597656 79.5410156,16.6015625 79.8339844,16.9921875 C80.1269531,17.3828125 80.4361979,17.7897135 80.7617188,18.2128906 C81.0872396,18.6360677 81.3151042,18.9453125 81.4453125,19.140625 C81.5104167,19.2708333 81.656901,19.4986979 81.8847656,19.8242188 C82.1126302,20.1497396 82.2591146,20.3450521 82.3242188,20.4101562 C82.3893229,20.4752604 82.6009115,20.686849 82.9589844,21.0449219 C83.3170573,21.4029948 83.5286458,21.6471354 83.59375,21.7773438 C83.6588542,21.8424479 83.6751302,22.1191406 83.6425781,22.6074219 C83.610026,23.0957031 83.59375,23.3723958 83.59375,23.4375 C83.59375,23.5677083 83.7239583,23.9746094 83.984375,24.6582031 C84.2447917,25.3417969 84.4075521,25.7486979 84.4726562,25.8789062 C84.4726562,25.9440104 84.5052083,26.1230469 84.5703125,26.4160156 C84.6354167,26.7089844 84.7167969,27.0182292 84.8144531,27.34375 C84.9121094,27.6692708 85.0097656,27.9785156 85.1074219,28.2714844 C85.2050781,28.5644531 85.2539062,28.7434896 85.2539062,28.8085938 C85.3190104,28.9388021 85.4654948,29.2317708 85.6933594,29.6875 C85.921224,30.1432292 86.0351562,30.4361979 86.0351562,30.5664063 L86.0351562,32.5195312 C86.0351562,32.6497396 86.0514323,32.8613281 86.0839844,33.1542969 C86.1165365,33.4472656 86.1653646,33.7565104 86.2304688,34.0820312 C86.2955729,34.4075521 86.344401,34.7167969 86.3769531,35.0097656 C86.4095052,35.3027344 86.4257812,35.4817708 86.4257812,35.546875 C86.4257812,35.6119792 86.4420573,35.8886719 86.4746094,36.3769531 C86.5071615,36.8652344 86.5234375,37.4186198 86.5234375,38.0371094 C86.5234375,38.655599 86.5397135,39.2740885 86.5722656,39.8925781 C86.6048177,40.5110677 86.6210938,41.015625 86.6210938,41.40625 C86.6210938,44.0104167 86.5234375,46.8424479 86.328125,49.9023438 C86.1328125,52.9622396 85.5143229,55.6640625 84.4726562,58.0078125 C84.3424479,58.203125 84.1796875,58.4960938 83.984375,58.8867188 C83.7890625,59.2773438 83.59375,59.7005208 83.3984375,60.15625 C83.203125,60.6119792 82.9915365,61.0351562 82.7636719,61.4257812 C82.5358073,61.8164063 82.3893229,62.109375 82.3242188,62.3046875 C82.2591146,62.4348958 82.1126302,62.6464844 81.8847656,62.9394531 C81.656901,63.2324219 81.5104167,63.4440104 81.4453125,63.5742187 C79.9479167,65.3971354 78.3365885,67.1875 76.6113281,68.9453125 C74.8860677,70.703125 73.1770833,72.3958333 71.484375,74.0234375 C70.3776042,75.0651042 69.0755208,75.9765625 67.578125,76.7578125 C66.0807292,77.5390625 64.7135417,78.2877604 63.4765625,79.0039062 C61.4583333,80.1106771 59.0983073,80.8105469 56.3964844,81.1035156 C53.6946615,81.3964844 51.2695312,81.5429688 49.1210938,81.5429688 C44.9544271,81.5429688 40.9830729,81.0546875 37.2070312,80.078125 C33.4309896,79.1015625 29.8177083,77.5065104 26.3671875,75.2929688 C26.1067708,75.1627604 25.764974,74.9674479 25.3417969,74.7070312 C24.9186198,74.4466146 24.5117188,74.1699219 24.1210938,73.8769531 C23.7304688,73.5839844 23.3886719,73.3398438 23.0957031,73.1445312 C22.8027344,72.9492188 22.6236979,72.8190104 22.5585938,72.7539062 C22.4934896,72.7539062 22.1516927,72.4772135 21.5332031,71.9238281 C20.9147135,71.3704427 20.1822917,70.703125 19.3359375,69.921875 C18.4895833,69.140625 17.6269531,68.359375 16.7480469,67.578125 C15.8691406,66.796875 15.1367188,66.1458333 14.5507812,65.625 C14.6158854,65.625 14.5507812,65.5273438 14.3554688,65.3320312 L14.1601562,65.1367188 C14.0950521,65.0065104 13.9648438,64.5996094 13.7695312,63.9160156 C13.5742188,63.2324219 13.4440104,62.8255208 13.3789062,62.6953125 C12.5976562,60.8072917 11.8164062,59.0169271 11.0351562,57.3242188 C10.2539062,55.6315104 9.63541667,53.7760417 9.1796875,51.7578125 C9.11458333,51.6927083 9.09830729,51.4322917 9.13085938,50.9765625 C9.16341146,50.5208333 9.1796875,50.2604167 9.1796875,50.1953125 C8.91927083,47.7864583 8.70768229,45.4264323 8.54492188,43.1152344 C8.38216146,40.8040365 8.30078125,38.4440104 8.30078125,36.0351562 Z M12.109375,78.515625 L18.8476562,71.875 L20.1171875,73.1445312 L13.3789062,79.7851562 C13.3789062,79.8502604 13.3463542,79.8828125 13.28125,79.8828125 L13.0859375,79.8828125 L12.9882812,79.7851562 C12.8580729,79.7851562 12.6953125,79.6875 12.5,79.4921875 C12.3046875,79.296875 12.1744792,79.1341146 12.109375,79.0039062 L12.109375,78.8085938 L12.109375,78.515625 Z M9.08203125,75.8789062 C9.08203125,75.8138021 9.11458333,75.7486979 9.1796875,75.6835938 L15.8203125,68.9453125 L17.0898438,70.2148438 L10.4492188,76.953125 L10.2539062,76.953125 L9.9609375,76.953125 C9.89583333,76.8229167 9.74934896,76.6764323 9.52148438,76.5136719 C9.29361979,76.3509115 9.1796875,76.2044271 9.1796875,76.0742188 L9.08203125,75.8789062 Z M12.5,66.8945312 C12.5,66.8945312 12.5651042,66.8619792 12.6953125,66.796875 L12.9882812,66.8945312 C13.0533854,66.8945312 13.2324219,67.0084635 13.5253906,67.2363281 C13.8183594,67.4641927 14.0299479,67.6106771 14.1601562,67.6757812 L7.421875,74.4140625 C7.421875,74.4791667 7.38932292,74.5117188 7.32421875,74.5117188 L7.12890625,74.5117188 C6.47786458,74.5117188 6.0546875,74.1861979 5.859375,73.5351562 L12.5,66.8945312 Z M4.4921875,69.0429688 C4.4921875,68.9778646 4.52473958,68.9453125 4.58984375,68.9453125 L10.8398438,62.6953125 L11.0351562,62.6953125 C11.3606771,62.6953125 11.5559896,62.8580729 11.6210938,63.1835938 C11.6861979,63.5091146 11.71875,63.7695312 11.71875,63.9648438 C11.71875,64.4205729 11.5559896,64.8111979 11.2304688,65.1367188 L5.859375,70.703125 L5.37109375,70.703125 C5.04557292,70.703125 4.81770833,70.5566406 4.6875,70.2636719 C4.55729167,69.9707031 4.4921875,69.6614583 4.4921875,69.3359375 L4.4921875,69.0429688 Z M9.1796875,58.8867188 L9.375,58.8867188 C9.70052083,58.8867188 9.89583333,59.0494792 9.9609375,59.375 C10.0260417,59.7005208 10.0585938,59.9934896 10.0585938,60.2539062 C10.0585938,60.3190104 10.0423177,60.3678385 10.0097656,60.4003906 C9.97721354,60.4329427 9.9609375,60.4817708 9.9609375,60.546875 L9.9609375,60.6445312 L3.7109375,66.8945312 L3.41796875,66.8945312 L3.3203125,66.8945312 C3.125,66.6992188 2.91341146,66.4388021 2.68554687,66.1132812 C2.45768229,65.7877604 2.37630208,65.625 2.44140625,65.625 L9.1796875,58.8867188 Z M26.3671875,47.265625 C26.4322917,47.3958333 26.5625,47.6074219 26.7578125,47.9003906 C26.953125,48.1933594 27.0507812,48.4049479 27.0507812,48.5351562 C27.1809896,48.6002604 27.2786458,48.811849 27.34375,49.1699219 C27.4088542,49.5279948 27.4739583,49.7395833 27.5390625,49.8046875 C27.6041667,49.9348958 27.750651,50.2604167 27.9785156,50.78125 C28.2063802,51.3020833 28.4505208,51.8717448 28.7109375,52.4902344 C28.9713542,53.108724 29.2317708,53.7109375 29.4921875,54.296875 C29.7526042,54.8828125 29.9479167,55.3059896 30.078125,55.5664062 C30.9895833,57.7148438 32.03125,59.4075521 33.203125,60.6445312 C34.375,61.8815104 35.6933594,62.7929688 37.1582031,63.3789062 C38.6230469,63.9648438 40.250651,64.3391927 42.0410156,64.5019531 C43.8313802,64.6647135 45.8007812,64.7460938 47.9492188,64.7460938 C51.7252604,64.7460938 55.1595052,64.1438802 58.2519531,62.9394531 C61.344401,61.735026 64.0950521,59.5703125 66.5039062,56.4453125 C66.5690104,56.3151042 66.6992188,56.0872396 66.8945312,55.7617188 C67.0898438,55.4361979 67.1875,55.2408854 67.1875,55.1757812 C67.96875,53.1575521 68.3919271,51.1230469 68.4570312,49.0722656 C68.5221354,47.0214844 68.5546875,44.921875 68.5546875,42.7734375 C68.5546875,42.578125 68.5546875,42.2200521 68.5546875,41.6992188 C68.5546875,41.1783854 68.5384115,40.625 68.5058594,40.0390625 C68.4733073,39.453125 68.4570312,38.8834635 68.4570312,38.3300781 C68.4570312,37.7766927 68.4570312,37.4023438 68.4570312,37.2070312 C68.3268229,36.4257812 68.0989583,35.3190104 67.7734375,33.8867188 C67.4479167,32.4544271 67.0247396,30.9733073 66.5039062,29.4433594 C65.9830729,27.9134115 65.3971354,26.4973958 64.7460938,25.1953125 C64.0950521,23.8932292 63.4114583,23.0143229 62.6953125,22.5585938 C62.6302083,22.5585938 62.4023438,22.5097656 62.0117188,22.4121094 C61.6210938,22.3144531 61.4257812,22.2330729 61.4257812,22.1679688 C61.3606771,22.1028646 61.2304688,21.891276 61.0351562,21.5332031 C60.8398438,21.1751302 60.6770833,20.9635417 60.546875,20.8984375 C60.4817708,20.7682292 60.3515625,20.5891927 60.15625,20.3613281 C59.9609375,20.1334635 59.7981771,20.0195312 59.6679688,20.0195312 C57.8450521,18.9127604 55.843099,18.0826823 53.6621094,17.5292969 C51.4811198,16.9759115 49.3164062,16.6992188 47.1679688,16.6992188 C44.2382812,16.6992188 41.4713542,17.1223958 38.8671875,17.96875 C36.2630208,18.8151042 33.968099,20.0683594 31.9824219,21.7285156 C29.9967448,23.3886719 28.4179688,25.4231771 27.2460938,27.8320312 C26.0742188,30.2408854 25.4882812,33.0078125 25.4882812,36.1328125 C25.4882812,37.9557292 25.5859375,39.7949219 25.78125,41.6503906 C25.9765625,43.5058594 26.171875,45.3776042 26.3671875,47.265625 Z M7.91015625,54.296875 C7.91015625,54.3619792 7.97526042,54.4433594 8.10546875,54.5410156 C8.23567708,54.6386719 8.30078125,54.7200521 8.30078125,54.7851562 C8.43098958,54.9153646 8.54492188,55.1432292 8.64257812,55.46875 C8.74023438,55.7942708 8.75651042,55.9895833 8.69140625,56.0546875 L2.05078125,62.6953125 C1.98567708,62.6953125 1.90429688,62.6464844 1.80664062,62.5488281 C1.70898438,62.4511719 1.62760417,62.3697917 1.5625,62.3046875 C1.49739583,62.1744792 1.46484375,62.0442708 1.46484375,61.9140625 C1.46484375,61.7838542 1.43229167,61.6536458 1.3671875,61.5234375 C1.30208333,61.328125 1.23697917,61.1653646 1.171875,61.0351562 L7.91015625,54.296875 Z M65.9179688,52.6367188 L66.1132812,53.0273438 C66.1132812,53.4830729 65.8854167,54.1015625 65.4296875,54.8828125 C64.9739583,55.6640625 64.4205729,56.4290365 63.7695312,57.1777344 C63.1184896,57.9264323 62.4674479,58.577474 61.8164062,59.1308594 C61.1653646,59.6842448 60.6445312,59.9609375 60.2539062,59.9609375 L60.2539062,58.4960938 L65.9179688,52.6367188 Z M7.12890625,49.8046875 L7.12890625,52.2460938 L1.171875,58.0078125 L0.87890625,58.0078125 L0.87890625,56.0546875 L7.12890625,49.8046875 Z M66.796875,46.3867188 L66.796875,47.4609375 C66.796875,47.7864583 66.813151,48.1119792 66.8457031,48.4375 C66.8782552,48.7630208 66.7643229,49.0559896 66.5039062,49.3164062 L60.546875,55.1757812 L60.546875,52.6367188 L66.796875,46.3867188 Z M6.73828125,44.3359375 L6.73828125,45.5078125 C6.73828125,46.2239583 6.72200521,46.6959635 6.68945312,46.9238281 C6.65690104,47.1516927 6.38020833,47.5260417 5.859375,48.046875 C5.46875,48.4375 4.98046875,48.9095052 4.39453125,49.4628906 C3.80859375,50.016276 3.25520833,50.5533854 2.734375,51.0742188 C2.08333333,51.7252604 1.46484375,52.3763021 0.87890625,53.0273438 L0.29296875,53.0273438 L0.29296875,50.5859375 L6.73828125,44.3359375 Z M66.796875,40.5273438 L66.796875,43.0664062 L60.546875,49.3164062 L60.546875,46.7773438 L66.796875,40.5273438 Z M6.25,39.2578125 C6.38020833,39.5833333 6.49414062,39.8763021 6.59179688,40.1367188 C6.68945312,40.3971354 6.73828125,40.6901042 6.73828125,41.015625 L6.73828125,41.40625 L0.29296875,47.65625 L0,47.65625 L0,45.5078125 L6.25,39.2578125 Z M59.6679688,42.1875 L66.5039062,35.546875 C66.5690104,35.6770833 66.6341146,35.953776 66.6992188,36.3769531 C66.7643229,36.8001302 66.796875,37.0768229 66.796875,37.2070312 C66.796875,37.2721354 66.7643229,37.4023438 66.6992188,37.5976562 C66.6341146,37.7929688 66.5690104,37.9557292 66.5039062,38.0859375 L60.2539062,44.3359375 C59.8632812,43.6848958 59.6679688,43.0989583 59.6679688,42.578125 L59.6679688,42.1875 Z M6.25,35.9375 L0,42.1875 L0,41.40625 C0,41.0807292 0.0162760417,40.7063802 0.048828125,40.2832031 C0.0813802083,39.860026 0.162760417,39.5182292 0.29296875,39.2578125 L6.25,33.3984375 L6.25,35.9375 Z M58.4960938,37.6953125 L64.7460938,31.25 L64.9414062,31.25 C65.2669271,31.25 65.4622396,31.4127604 65.5273438,31.7382812 C65.5924479,32.0638021 65.625,32.3242188 65.625,32.5195312 C65.625,32.7799479 65.608724,33.0078125 65.5761719,33.203125 C65.5436198,33.3984375 65.4296875,33.59375 65.234375,33.7890625 L59.6679688,39.2578125 L58.984375,39.6484375 C58.6588542,39.1927083 58.4960938,38.6067708 58.4960938,37.890625 L58.4960938,37.6953125 Z M6.73828125,30.078125 L0.87890625,35.9375 C1.00911458,35.2864583 1.18815104,34.5540365 1.41601562,33.7402344 C1.64388021,32.9264323 1.98567708,32.2916667 2.44140625,31.8359375 L7.421875,26.7578125 L6.73828125,30.078125 Z M56.8359375,33.7890625 L63.4765625,27.1484375 C63.5416667,27.1484375 63.6230469,27.2135417 63.7207031,27.34375 C63.8183594,27.4739583 63.8997396,27.5390625 63.9648438,27.5390625 C63.9648438,27.6692708 64.0299479,27.9296875 64.1601562,28.3203125 C64.2252604,28.515625 64.2903646,28.6783854 64.3554688,28.8085938 L57.7148438,35.546875 C57.1289062,35.2213542 56.8359375,34.7330729 56.8359375,34.0820312 L56.8359375,33.7890625 Z M60.546875,24.3164062 C60.6770833,24.1861979 60.8398438,24.0722656 61.0351562,23.9746094 C61.2304688,23.8769531 61.3606771,23.828125 61.4257812,23.828125 C61.4257812,23.8932292 61.5397135,24.0234375 61.7675781,24.21875 C61.9954427,24.4140625 62.1419271,24.5768229 62.2070312,24.7070312 C62.2070312,24.7070312 62.2395833,24.7721354 62.3046875,24.9023438 L62.2070312,25 L55.5664062,31.8359375 L54.296875,30.5664062 L60.546875,24.3164062 Z M58.1054688,21.2890625 C58.1705729,21.3541667 58.2682292,21.4192708 58.3984375,21.484375 L58.984375,21.7773438 L59.375,22.1679688 L59.375,22.4609375 L59.375,22.5585938 L52.5390625,29.296875 L51.3671875,28.0273438 L58.1054688,21.2890625 Z M53.8085938,19.6289062 L54.0039062,19.6289062 C54.0690104,19.6289062 54.1015625,19.6126302 54.1015625,19.5800781 C54.1015625,19.547526 54.1341146,19.53125 54.1992188,19.53125 C54.5247396,19.53125 54.8339844,19.5963542 55.1269531,19.7265625 C55.4199219,19.8567708 55.5664062,20.0846354 55.5664062,20.4101562 L55.5664062,20.8984375 L50.0976562,26.2695312 C49.9023438,26.5299479 49.6907552,26.6764323 49.4628906,26.7089844 C49.235026,26.7415365 48.9908854,26.7578125 48.7304688,26.7578125 C48.4049479,26.7578125 48.1445312,26.7415365 47.9492188,26.7089844 C47.7539062,26.6764323 47.4934896,26.5299479 47.1679688,26.2695312 L53.8085938,19.6289062 Z M33.7890625,25.5859375 C33.7239583,25.5859375 33.59375,25.6347656 33.3984375,25.7324219 C33.203125,25.8300781 33.0403646,25.8789062 32.9101562,25.8789062 C32.8450521,25.8789062 32.5520833,25.9440104 32.03125,26.0742188 C31.5104167,26.2044271 31.1197917,26.2695312 30.859375,26.2695312 L30.6640625,26.2695312 L30.46875,26.2695312 C30.5989583,26.0742188 30.8919271,25.7486979 31.3476562,25.2929688 C31.8033854,24.8372396 32.3079427,24.3489583 32.8613281,23.828125 C33.4147135,23.3072917 33.9355469,22.8027344 34.4238281,22.3144531 C34.9121094,21.8261719 35.2539062,21.484375 35.4492188,21.2890625 C35.9049479,20.9635417 36.5722656,20.6380208 37.4511719,20.3125 C38.3300781,19.9869792 39.0950521,19.7591146 39.7460938,19.6289062 L33.7890625,25.5859375 Z M49.3164062,18.75 L51.3671875,18.75 L51.3671875,19.140625 L45.1171875,25.5859375 L44.6289062,25.5859375 C44.3033854,25.5859375 44.0104167,25.5696615 43.75,25.5371094 C43.4895833,25.5045573 43.2291667,25.3255208 42.96875,25 L49.3164062,18.75 Z M42.96875,19.140625 C43.359375,18.8151042 43.8476562,18.6197917 44.4335938,18.5546875 C45.0195312,18.4895833 45.5403646,18.4570312 45.9960938,18.4570312 L46.2890625,18.4570312 L39.7460938,25 C39.6809896,25.0651042 39.6158854,25.0976562 39.5507812,25.0976562 C39.4856771,25.1627604 39.3229167,25.1953125 39.0625,25.1953125 C38.6067708,25.1953125 38.1184896,25.0325521 37.5976562,24.7070312 L42.96875,19.140625 Z" id="Shape" fill="#E3BF1C" fill-rule="nonzero"></path>
                    </g>
                    <g id="T" transform="translate(149.121094, 0.000000)">
                        <path d="M27.1484375,84.5703125 L20.8984375,90.8203125 L18.4570312,90.8203125 L25.1953125,83.984375 L27.1484375,84.5703125 Z M33.0078125,83.984375 L33.0078125,84.5703125 L27.1484375,90.4296875 C26.8880208,90.6901042 26.6113281,90.8203125 26.3183594,90.8203125 C26.0253906,90.8203125 25.6835938,90.8203125 25.2929688,90.8203125 L24.3164062,90.8203125 L30.9570312,83.984375 L33.0078125,83.984375 Z M36.4257812,83.984375 L39.2578125,83.984375 L33.0078125,90.4296875 L30.1757812,90.8203125 L30.1757812,90.4296875 L36.4257812,83.984375 Z M23.4375,80.2734375 L23.4375,82.8125 L17.1875,89.1601562 L17.1875,86.6210938 L23.4375,80.2734375 Z M16.6992188,81.4453125 C16.6992188,81.3151042 16.7317708,81.2174479 16.796875,81.1523438 L23.046875,74.9023438 C23.3072917,75.1627604 23.453776,75.390625 23.4863281,75.5859375 C23.5188802,75.78125 23.5351562,76.0416667 23.5351562,76.3671875 C23.5351562,76.4322917 23.5188802,76.4973958 23.4863281,76.5625 C23.453776,76.6276042 23.4375,76.6927083 23.4375,76.7578125 L23.4375,77.0507812 C23.4375,77.1158854 23.2747396,77.360026 22.9492188,77.7832031 C22.6236979,78.2063802 22.3632812,78.4830729 22.1679688,78.6132812 C22.0377604,78.8085938 21.7285156,79.1503906 21.2402344,79.6386719 C20.7519531,80.1269531 20.2473958,80.6315104 19.7265625,81.1523438 C19.2057292,81.6731771 18.7011719,82.1777344 18.2128906,82.6660156 C17.7246094,83.1542969 17.3828125,83.4960938 17.1875,83.6914062 C16.8619792,83.5611979 16.6992188,83.2845052 16.6992188,82.8613281 C16.6992188,82.438151 16.6992188,82.1614583 16.6992188,82.03125 L16.6992188,81.4453125 Z M25,71.484375 C25,69.5963542 25.0976562,67.7571615 25.2929688,65.9667969 C25.4882812,64.1764323 25.5859375,62.3372396 25.5859375,60.4492188 L25.5859375,59.375 C25.5208333,59.1145833 25.4557292,58.577474 25.390625,57.7636719 C25.3255208,56.9498698 25.2604167,56.1035156 25.1953125,55.2246094 C25.1302083,54.3457031 25.0651042,53.515625 25,52.734375 C24.9348958,51.953125 24.9023438,51.3997396 24.9023438,51.0742188 L24.9023438,49.8046875 C24.9023438,49.21875 24.9023438,48.2910156 24.9023438,47.0214844 C24.9023438,45.7519531 24.8860677,44.4335938 24.8535156,43.0664062 C24.8209635,41.6992188 24.7884115,40.4296875 24.7558594,39.2578125 C24.7233073,38.0859375 24.7070312,37.3046875 24.7070312,36.9140625 C24.7070312,36.4583333 24.6744792,35.6282552 24.609375,34.4238281 C24.5442708,33.219401 24.4628906,31.9335937 24.3652344,30.5664063 C24.2675781,29.1992188 24.1699219,27.8808594 24.0722656,26.6113281 C23.9746094,25.3417969 23.9257812,24.4466146 23.9257812,23.9257813 C23.8606771,23.4700521 23.7630208,22.9492188 23.6328125,22.3632812 C23.5026042,21.7773438 23.3398438,21.1914062 23.1445312,20.6054688 C22.9492188,20.0195312 22.672526,19.514974 22.3144531,19.0917969 C21.9563802,18.6686198 21.484375,18.4244792 20.8984375,18.359375 C20.6380208,18.359375 20.1822917,18.343099 19.53125,18.3105469 C18.8802083,18.2779948 18.1966146,18.2454427 17.4804688,18.2128906 C16.7643229,18.1803385 16.0970052,18.1477865 15.4785156,18.1152344 C14.860026,18.0826823 14.453125,18.0664062 14.2578125,18.0664062 C14.1927083,18.0664062 13.9973958,18.0826823 13.671875,18.1152344 C13.3463542,18.1477865 13.0045573,18.1803385 12.6464844,18.2128906 C12.2884115,18.2454427 11.9303385,18.2779948 11.5722656,18.3105469 C11.2141927,18.343099 11.0026042,18.359375 10.9375,18.359375 L10.6445312,18.359375 C9.14713542,18.359375 8.3984375,17.5455729 8.3984375,15.9179688 L8.3984375,1.26953125 L8.7890625,0.87890625 C8.7890625,0.87890625 9.35872396,0.862630208 10.4980469,0.830078125 C11.6373698,0.797526042 13.1184896,0.748697917 14.9414062,0.68359375 C16.7643229,0.618489583 18.8313802,0.553385417 21.1425781,0.48828125 C23.453776,0.423177083 25.78125,0.374348958 28.125,0.341796875 C30.46875,0.309244792 32.7311198,0.260416667 34.9121094,0.1953125 C37.093099,0.130208333 38.9648438,0.0651041667 40.5273438,0 L47.65625,0 L54.7851562,0 C55.3059896,0.1953125 55.6803385,0.862630208 55.9082031,2.00195312 C56.1360677,3.14127604 56.2988281,4.39453125 56.3964844,5.76171875 C56.4941406,7.12890625 56.5429688,8.44726562 56.5429688,9.71679688 C56.5429688,10.9863281 56.5429688,11.8489583 56.5429688,12.3046875 C56.5429688,12.6953125 56.5429688,13.1673177 56.5429688,13.7207031 C56.5429688,14.2740885 56.4941406,14.8111979 56.3964844,15.3320312 C56.2988281,15.8528646 56.0872396,16.2923177 55.7617188,16.6503906 C55.4361979,17.0084635 54.9804688,17.1875 54.3945312,17.1875 C54.0690104,17.1875 53.531901,17.2200521 52.7832031,17.2851562 C52.0345052,17.3502604 51.2369792,17.3990885 50.390625,17.4316406 C49.5442708,17.4641927 48.7467448,17.5130208 47.9980469,17.578125 C47.249349,17.6432292 46.7122396,17.6757812 46.3867188,17.6757812 C46.1914062,17.6757812 45.719401,17.7083333 44.9707031,17.7734375 C44.2220052,17.8385417 43.75,17.9361979 43.5546875,18.0664062 C43.4895833,18.0664062 43.343099,18.1152344 43.1152344,18.2128906 C42.8873698,18.3105469 42.7408854,18.359375 42.6757812,18.359375 C42.6757812,18.75 42.6757812,19.4010417 42.6757812,20.3125 C42.6757812,21.2239583 42.6595052,22.1679687 42.6269531,23.1445312 C42.594401,24.1210938 42.578125,25.0651042 42.578125,25.9765625 C42.578125,26.8880208 42.578125,27.5390625 42.578125,27.9296875 C42.578125,34.9609375 42.8873698,41.9596354 43.5058594,48.9257813 C44.124349,55.8919271 44.4335938,62.9231771 44.4335938,70.0195312 L44.4335938,76.171875 C44.4335938,76.5625 44.4010417,77.0507812 44.3359375,77.6367188 C44.2708333,78.2226562 44.2220052,78.8085938 44.1894531,79.3945312 C44.156901,79.9804688 44.1080729,80.485026 44.0429688,80.9082031 C43.9778646,81.3313802 43.9453125,81.5429688 43.9453125,81.5429688 L43.5546875,82.03125 C43.5546875,82.03125 43.1803385,82.047526 42.4316406,82.0800781 C41.6829427,82.1126302 40.8040365,82.1451823 39.7949219,82.1777344 C38.7858073,82.2102865 37.7278646,82.2591146 36.6210938,82.3242188 C35.5143229,82.3893229 34.6028646,82.421875 33.8867188,82.421875 L29.296875,82.421875 L26.4648438,82.421875 L25.5859375,81.5429688 C25.5208333,81.5429688 25.4720052,81.2825521 25.4394531,80.7617188 C25.406901,80.2408854 25.374349,79.6223958 25.3417969,78.90625 C25.3092448,78.1901042 25.2766927,77.4576823 25.2441406,76.7089844 C25.2115885,75.9602865 25.1953125,75.3580729 25.1953125,74.9023438 C25.1953125,74.8372396 25.1627604,74.3652344 25.0976562,73.4863281 C25.0325521,72.6074219 25,71.9401042 25,71.484375 Z M23.046875,69.4335938 C23.1119792,69.5638021 23.1933594,69.8567708 23.2910156,70.3125 C23.3886719,70.7682292 23.4375,71.0611979 23.4375,71.1914062 L23.4375,71.3867188 L23.4375,71.484375 L16.796875,78.3203125 C16.796875,78.1901042 16.780599,78.0273438 16.7480469,77.8320312 C16.7154948,77.6367188 16.6992188,77.5065104 16.6992188,77.4414062 C16.6992188,77.1158854 16.7154948,76.7415365 16.7480469,76.3183594 C16.780599,75.8951823 16.9270833,75.5533854 17.1875,75.2929688 L23.046875,69.4335938 Z M23.9257812,63.1835938 C23.9257812,63.5091146 23.8769531,63.9648438 23.7792969,64.5507812 C23.6816406,65.1367188 23.5677083,65.4947917 23.4375,65.625 L17.1875,71.875 L17.1875,71.1914062 C17.1875,70.8658854 17.203776,70.4915365 17.2363281,70.0683594 C17.2688802,69.6451823 17.3828125,69.3033854 17.578125,69.0429688 L23.4375,63.1835938 L23.9257812,63.1835938 Z M23.9257812,57.3242188 L23.9257812,59.8632812 L17.578125,66.1132812 L17.1875,66.1132812 L17.1875,64.0625 L23.9257812,57.3242188 Z M16.796875,58.4960938 L23.4375,51.953125 L23.4375,54.7851562 L17.1875,61.1328125 C17.1223958,60.9375 17.0410156,60.563151 16.9433594,60.0097656 C16.8457031,59.4563802 16.796875,59.1145833 16.796875,58.984375 L16.796875,58.7890625 L16.796875,58.4960938 Z M23.046875,46.875 L23.046875,49.4140625 L16.796875,55.6640625 L16.796875,53.125 L23.046875,46.875 Z M23.046875,41.015625 L23.046875,43.5546875 L16.796875,49.8046875 L16.796875,47.265625 L23.046875,41.015625 Z M23.046875,35.6445312 L23.046875,38.1835938 L16.796875,44.4335938 L16.3085938,44.4335938 L16.3085938,42.2851562 L23.046875,35.6445312 Z M15.8203125,37.2070312 C15.8203125,37.1419271 15.8528646,37.0442708 15.9179688,36.9140625 L22.1679688,30.5664062 L22.7539062,30.5664062 C22.7539062,30.8919271 22.7539062,31.3802083 22.7539062,32.03125 C22.7539062,32.6822917 22.5585938,33.1705729 22.1679688,33.4960938 L17.1875,38.5742188 C17.1223958,38.6393229 16.9759115,38.7044271 16.7480469,38.7695312 C16.5201823,38.8346354 16.3736979,38.8671875 16.3085938,38.8671875 C16.0481771,38.8671875 15.9016927,38.671875 15.8691406,38.28125 C15.8365885,37.890625 15.8203125,37.6302083 15.8203125,37.5 L15.8203125,37.2070312 Z M22.1679688,25.1953125 L22.1679688,27.6367188 L15.9179688,33.8867188 L15.5273438,31.7382812 L22.1679688,25.1953125 Z M14.2578125,27.2460938 L20.8984375,20.5078125 C20.9635417,20.5078125 21.0449219,20.5729167 21.1425781,20.703125 C21.2402344,20.8333333 21.3216146,20.8984375 21.3867188,20.8984375 C21.5169271,21.09375 21.6145833,21.3541667 21.6796875,21.6796875 C21.7447917,22.0052083 21.7773438,22.2005208 21.7773438,22.265625 L15.0390625,28.90625 C14.84375,28.7760417 14.6484375,28.5644531 14.453125,28.2714844 C14.2578125,27.9785156 14.1601562,27.7018229 14.1601562,27.4414062 L14.2578125,27.2460938 Z M0.390625,24.3164062 L6.8359375,18.0664062 C7.421875,18.3919271 7.71484375,18.7825521 7.71484375,19.2382812 C7.71484375,19.3033854 7.69856771,19.3522135 7.66601562,19.3847656 C7.63346354,19.4173177 7.6171875,19.4661458 7.6171875,19.53125 L7.51953125,19.6289062 L0.87890625,26.3671875 C0.553385417,26.3020833 0.390625,26.0904948 0.390625,25.7324219 C0.390625,25.374349 0.390625,25.1302083 0.390625,25 L0.390625,24.3164062 Z M12.5,20.1171875 L12.5,20.5078125 L7.12890625,26.0742188 C6.80338542,26.3346354 6.46158854,26.4485677 6.10351562,26.4160156 C5.74544271,26.3834635 5.40364583,26.3671875 5.078125,26.3671875 L3.80859375,26.3671875 L10.0585938,20.1171875 L12.5,20.1171875 Z M18.4570312,20.1171875 L12.2070312,26.3671875 L9.66796875,26.3671875 L16.3085938,19.6289062 L18.4570312,20.1171875 Z M53.515625,18.9453125 L47.265625,25.1953125 C47.0052083,25.4557292 46.7122396,25.6022135 46.3867188,25.6347656 C46.0611979,25.6673177 45.7356771,25.6835938 45.4101562,25.6835938 C45.3450521,25.6835938 45.1822917,25.6510417 44.921875,25.5859375 C44.6614583,25.5208333 44.4986979,25.4882812 44.4335938,25.4882812 L51.0742188,18.9453125 L53.515625,18.9453125 Z M43.9453125,20.8007812 C43.9453125,20.0195312 44.2545573,19.5638021 44.8730469,19.4335938 C45.4915365,19.3033854 46.09375,19.2382812 46.6796875,19.2382812 L47.265625,19.2382812 L44.4335938,22.265625 C44.3684896,22.1354167 44.2871094,21.9075521 44.1894531,21.5820312 C44.0917969,21.2565104 44.0104167,21.0286458 43.9453125,20.8984375 L43.9453125,20.8007812 Z M6.25,12.6953125 L6.25,15.1367188 L0,21.3867188 L0,18.9453125 L6.25,12.6953125 Z M6.25,7.12890625 L6.25,9.66796875 L0,15.9179688 L0,13.3789062 L6.25,7.12890625 Z M6.25,3.41796875 C6.25,3.48307292 6.28255208,3.515625 6.34765625,3.515625 L6.4453125,3.61328125 L6.25,3.80859375 C6.18489583,4.00390625 6.00585938,4.31315104 5.71289062,4.73632812 C5.41992188,5.15950521 5.20833333,5.43619792 5.078125,5.56640625 C4.8828125,5.69661458 4.58984375,5.97330729 4.19921875,6.39648438 C3.80859375,6.81966146 3.38541667,7.24283854 2.9296875,7.66601562 C2.47395833,8.08919271 2.05078125,8.49609375 1.66015625,8.88671875 C1.26953125,9.27734375 1.00911458,9.53776042 0.87890625,9.66796875 C0.813802083,9.73307292 0.68359375,9.81445312 0.48828125,9.91210938 C0.29296875,10.0097656 0.130208333,10.0911458 0,10.15625 L0,9.66796875 L6.25,3.41796875 Z" id="Shape" fill="#79C5BB" fill-rule="nonzero"></path>
                    </g>
                    <g id="O" transform="translate(213.707031, 0.488281)">
                        <path d="M46.2890625,83.4960938 L48.828125,83.4960938 L42.1875,90.3320312 L41.6015625,90.3320312 C41.3411458,90.3320312 41.0970052,90.3157552 40.8691406,90.2832031 C40.641276,90.250651 40.3645833,90.1367188 40.0390625,89.9414062 L46.2890625,83.4960938 Z M41.3085938,83.203125 L43.8476562,83.203125 L37.2070312,89.9414062 L36.4257812,89.9414062 C36.2955729,89.9414062 36.0677083,89.9414062 35.7421875,89.9414062 C35.4166667,89.9414062 35.1888021,89.7786458 35.0585938,89.453125 L41.3085938,83.203125 Z M55.078125,83.203125 L49.3164062,89.0625 C49.1210938,89.2578125 48.7792969,89.3717448 48.2910156,89.4042969 C47.8027344,89.436849 47.3632812,89.453125 46.9726562,89.453125 L46.2890625,89.453125 L52.2460938,83.4960938 C52.3763021,83.3658854 52.7018229,83.2845052 53.2226562,83.2519531 C53.7434896,83.219401 54.1666667,83.203125 54.4921875,83.203125 L55.078125,83.203125 Z M36.71875,81.9335938 L36.9140625,81.9335938 C37.2395833,81.9335938 37.5813802,81.9661458 37.9394531,82.03125 C38.297526,82.0963542 38.4765625,82.3567708 38.4765625,82.8125 L38.4765625,83.203125 L32.9101562,88.671875 C32.7148438,88.9322917 32.2591146,89.0625 31.5429688,89.0625 C31.2174479,89.0625 30.9570312,89.046224 30.7617188,89.0136719 C30.5664062,88.9811198 30.3385417,88.8671875 30.078125,88.671875 L36.71875,81.9335938 Z M62.2070312,81.5429688 C62.0768229,81.9986979 61.6536458,82.6009115 60.9375,83.3496094 C60.2213542,84.0983073 59.375,84.8307292 58.3984375,85.546875 C57.421875,86.2630208 56.4453125,86.8815104 55.46875,87.4023438 C54.4921875,87.9231771 53.7434896,88.1835938 53.2226562,88.1835938 L53.125,88.1835938 L58.984375,82.3242188 C59.1145833,82.2591146 59.2773438,82.1940104 59.4726562,82.1289062 C59.6028646,82.0638021 59.7330729,82.03125 59.8632812,82.03125 C59.9934896,82.03125 60.1236979,81.9986979 60.2539062,81.9335938 C60.3841146,81.8684896 60.7096354,81.7871094 61.2304688,81.6894531 C61.7513021,81.5917969 62.0768229,81.5429688 62.2070312,81.5429688 Z M32.6171875,80.6640625 L32.7148438,80.6640625 L32.9101562,80.6640625 C33.0403646,80.7291667 33.1705729,80.7617188 33.3007812,80.7617188 C33.4309896,80.7617188 33.5611979,80.7942708 33.6914062,80.859375 C33.8867188,80.9244792 34.0494792,80.9895833 34.1796875,81.0546875 L34.375,81.25 L34.1796875,81.5429688 L27.9296875,87.7929688 L27.4414062,87.7929688 C27.1158854,87.7929688 26.8391927,87.7766927 26.6113281,87.7441406 C26.3834635,87.7115885 26.1393229,87.5976562 25.8789062,87.4023438 L32.6171875,80.6640625 Z M22.0703125,85.2539062 L28.3203125,79.0039062 L28.515625,79.0039062 C28.5807292,79.0039062 28.6132812,78.9876302 28.6132812,78.9550781 C28.6132812,78.922526 28.6458333,78.90625 28.7109375,78.90625 C28.9713542,78.90625 29.2643229,78.9550781 29.5898438,79.0527344 C29.9153646,79.1503906 30.078125,79.3619792 30.078125,79.6875 L30.078125,79.7851562 L23.828125,86.1328125 L23.4375,86.1328125 C23.1770833,86.1328125 22.8841146,86.1002604 22.5585938,86.0351562 C22.2330729,85.9700521 22.0703125,85.8072917 22.0703125,85.546875 L22.0703125,85.2539062 Z M25.0976562,76.953125 L25.1953125,76.953125 L25.4882812,76.953125 C25.6184896,77.0182292 25.8300781,77.1484375 26.1230469,77.34375 C26.4160156,77.5390625 26.5950521,77.7018229 26.6601562,77.8320312 L20.1171875,84.375 C20.1171875,84.4401042 20.0846354,84.4726562 20.0195312,84.4726562 C19.9544271,84.5377604 19.8893229,84.5703125 19.8242188,84.5703125 C19.5638021,84.5703125 19.2871094,84.4726562 18.9941406,84.2773438 C18.7011719,84.0820312 18.4895833,83.8216146 18.359375,83.4960938 L25.0976562,76.953125 Z M14.9414062,81.0546875 L21.6796875,74.4140625 C21.875,74.4140625 22.1354167,74.5768229 22.4609375,74.9023438 C22.7864583,75.2278646 22.9492188,75.4882812 22.9492188,75.6835938 C22.9492188,75.7486979 22.8352865,75.9440104 22.6074219,76.2695312 C22.3795573,76.5950521 22.2005208,76.8229167 22.0703125,76.953125 C21.875,77.1484375 21.5169271,77.5065104 20.9960938,78.0273438 C20.4752604,78.5481771 19.938151,79.1015625 19.3847656,79.6875 C18.8313802,80.2734375 18.2942708,80.8105469 17.7734375,81.2988281 C17.2526042,81.7871094 16.8945312,82.1289062 16.6992188,82.3242188 L16.5039062,82.3242188 C16.1783854,82.3242188 15.8365885,82.2265625 15.4785156,82.03125 C15.1204427,81.8359375 14.9414062,81.5755208 14.9414062,81.25 L14.9414062,81.0546875 Z M8.30078125,36.0351562 C8.30078125,34.5377604 8.33333333,33.1054688 8.3984375,31.7382812 C8.46354167,30.3710938 8.72395833,28.9713542 9.1796875,27.5390625 C10.0260417,24.609375 11.344401,21.8261719 13.1347656,19.1894531 C14.9251302,16.5527344 16.8294271,14.0299479 18.8476562,11.6210938 C19.7591146,10.5794271 20.703125,9.70052083 21.6796875,8.984375 C22.65625,8.26822917 23.7955729,7.48697917 25.0976562,6.640625 C27.8971354,4.75260417 30.9082031,3.17382812 34.1308594,1.90429688 C37.3535156,0.634765625 40.7226562,0 44.2382812,0 C47.8841146,0 51.3997396,0.29296875 54.7851562,0.87890625 C58.1705729,1.46484375 61.4908854,2.70182292 64.7460938,4.58984375 C64.8763021,4.65494792 65.218099,4.91536458 65.7714844,5.37109375 C66.3248698,5.82682292 66.6666667,6.11979167 66.796875,6.25 C68.8802083,7.74739583 70.9472656,9.1796875 72.9980469,10.546875 C75.0488281,11.9140625 76.9205729,13.5416667 78.6132812,15.4296875 C78.6132812,15.4947917 78.7434896,15.6738281 79.0039062,15.9667969 C79.2643229,16.2597656 79.5410156,16.6015625 79.8339844,16.9921875 C80.1269531,17.3828125 80.4361979,17.7897135 80.7617188,18.2128906 C81.0872396,18.6360677 81.3151042,18.9453125 81.4453125,19.140625 C81.5104167,19.2708333 81.656901,19.4986979 81.8847656,19.8242188 C82.1126302,20.1497396 82.2591146,20.3450521 82.3242188,20.4101562 C82.3893229,20.4752604 82.6009115,20.686849 82.9589844,21.0449219 C83.3170573,21.4029948 83.5286458,21.6471354 83.59375,21.7773438 C83.6588542,21.8424479 83.6751302,22.1191406 83.6425781,22.6074219 C83.610026,23.0957031 83.59375,23.3723958 83.59375,23.4375 C83.59375,23.5677083 83.7239583,23.9746094 83.984375,24.6582031 C84.2447917,25.3417969 84.4075521,25.7486979 84.4726562,25.8789062 C84.4726562,25.9440104 84.5052083,26.1230469 84.5703125,26.4160156 C84.6354167,26.7089844 84.7167969,27.0182292 84.8144531,27.34375 C84.9121094,27.6692708 85.0097656,27.9785156 85.1074219,28.2714844 C85.2050781,28.5644531 85.2539062,28.7434896 85.2539062,28.8085938 C85.3190104,28.9388021 85.4654948,29.2317708 85.6933594,29.6875 C85.921224,30.1432292 86.0351562,30.4361979 86.0351562,30.5664063 L86.0351562,32.5195312 C86.0351562,32.6497396 86.0514323,32.8613281 86.0839844,33.1542969 C86.1165365,33.4472656 86.1653646,33.7565104 86.2304688,34.0820312 C86.2955729,34.4075521 86.344401,34.7167969 86.3769531,35.0097656 C86.4095052,35.3027344 86.4257812,35.4817708 86.4257812,35.546875 C86.4257812,35.6119792 86.4420573,35.8886719 86.4746094,36.3769531 C86.5071615,36.8652344 86.5234375,37.4186198 86.5234375,38.0371094 C86.5234375,38.655599 86.5397135,39.2740885 86.5722656,39.8925781 C86.6048177,40.5110677 86.6210938,41.015625 86.6210938,41.40625 C86.6210938,44.0104167 86.5234375,46.8424479 86.328125,49.9023438 C86.1328125,52.9622396 85.5143229,55.6640625 84.4726562,58.0078125 C84.3424479,58.203125 84.1796875,58.4960938 83.984375,58.8867188 C83.7890625,59.2773438 83.59375,59.7005208 83.3984375,60.15625 C83.203125,60.6119792 82.9915365,61.0351562 82.7636719,61.4257812 C82.5358073,61.8164063 82.3893229,62.109375 82.3242188,62.3046875 C82.2591146,62.4348958 82.1126302,62.6464844 81.8847656,62.9394531 C81.656901,63.2324219 81.5104167,63.4440104 81.4453125,63.5742187 C79.9479167,65.3971354 78.3365885,67.1875 76.6113281,68.9453125 C74.8860677,70.703125 73.1770833,72.3958333 71.484375,74.0234375 C70.3776042,75.0651042 69.0755208,75.9765625 67.578125,76.7578125 C66.0807292,77.5390625 64.7135417,78.2877604 63.4765625,79.0039062 C61.4583333,80.1106771 59.0983073,80.8105469 56.3964844,81.1035156 C53.6946615,81.3964844 51.2695312,81.5429688 49.1210938,81.5429688 C44.9544271,81.5429688 40.9830729,81.0546875 37.2070312,80.078125 C33.4309896,79.1015625 29.8177083,77.5065104 26.3671875,75.2929688 C26.1067708,75.1627604 25.764974,74.9674479 25.3417969,74.7070312 C24.9186198,74.4466146 24.5117188,74.1699219 24.1210938,73.8769531 C23.7304688,73.5839844 23.3886719,73.3398438 23.0957031,73.1445312 C22.8027344,72.9492188 22.6236979,72.8190104 22.5585938,72.7539062 C22.4934896,72.7539062 22.1516927,72.4772135 21.5332031,71.9238281 C20.9147135,71.3704427 20.1822917,70.703125 19.3359375,69.921875 C18.4895833,69.140625 17.6269531,68.359375 16.7480469,67.578125 C15.8691406,66.796875 15.1367188,66.1458333 14.5507812,65.625 C14.6158854,65.625 14.5507812,65.5273438 14.3554688,65.3320312 L14.1601562,65.1367188 C14.0950521,65.0065104 13.9648438,64.5996094 13.7695312,63.9160156 C13.5742188,63.2324219 13.4440104,62.8255208 13.3789062,62.6953125 C12.5976562,60.8072917 11.8164062,59.0169271 11.0351562,57.3242188 C10.2539062,55.6315104 9.63541667,53.7760417 9.1796875,51.7578125 C9.11458333,51.6927083 9.09830729,51.4322917 9.13085938,50.9765625 C9.16341146,50.5208333 9.1796875,50.2604167 9.1796875,50.1953125 C8.91927083,47.7864583 8.70768229,45.4264323 8.54492188,43.1152344 C8.38216146,40.8040365 8.30078125,38.4440104 8.30078125,36.0351562 Z M12.109375,78.515625 L18.8476562,71.875 L20.1171875,73.1445312 L13.3789062,79.7851562 C13.3789062,79.8502604 13.3463542,79.8828125 13.28125,79.8828125 L13.0859375,79.8828125 L12.9882812,79.7851562 C12.8580729,79.7851562 12.6953125,79.6875 12.5,79.4921875 C12.3046875,79.296875 12.1744792,79.1341146 12.109375,79.0039062 L12.109375,78.8085938 L12.109375,78.515625 Z M9.08203125,75.8789062 C9.08203125,75.8138021 9.11458333,75.7486979 9.1796875,75.6835938 L15.8203125,68.9453125 L17.0898438,70.2148438 L10.4492188,76.953125 L10.2539062,76.953125 L9.9609375,76.953125 C9.89583333,76.8229167 9.74934896,76.6764323 9.52148438,76.5136719 C9.29361979,76.3509115 9.1796875,76.2044271 9.1796875,76.0742188 L9.08203125,75.8789062 Z M12.5,66.8945312 C12.5,66.8945312 12.5651042,66.8619792 12.6953125,66.796875 L12.9882812,66.8945312 C13.0533854,66.8945312 13.2324219,67.0084635 13.5253906,67.2363281 C13.8183594,67.4641927 14.0299479,67.6106771 14.1601562,67.6757812 L7.421875,74.4140625 C7.421875,74.4791667 7.38932292,74.5117188 7.32421875,74.5117188 L7.12890625,74.5117188 C6.47786458,74.5117188 6.0546875,74.1861979 5.859375,73.5351562 L12.5,66.8945312 Z M4.4921875,69.0429688 C4.4921875,68.9778646 4.52473958,68.9453125 4.58984375,68.9453125 L10.8398438,62.6953125 L11.0351562,62.6953125 C11.3606771,62.6953125 11.5559896,62.8580729 11.6210938,63.1835938 C11.6861979,63.5091146 11.71875,63.7695312 11.71875,63.9648438 C11.71875,64.4205729 11.5559896,64.8111979 11.2304688,65.1367188 L5.859375,70.703125 L5.37109375,70.703125 C5.04557292,70.703125 4.81770833,70.5566406 4.6875,70.2636719 C4.55729167,69.9707031 4.4921875,69.6614583 4.4921875,69.3359375 L4.4921875,69.0429688 Z M9.1796875,58.8867188 L9.375,58.8867188 C9.70052083,58.8867188 9.89583333,59.0494792 9.9609375,59.375 C10.0260417,59.7005208 10.0585938,59.9934896 10.0585938,60.2539062 C10.0585938,60.3190104 10.0423177,60.3678385 10.0097656,60.4003906 C9.97721354,60.4329427 9.9609375,60.4817708 9.9609375,60.546875 L9.9609375,60.6445312 L3.7109375,66.8945312 L3.41796875,66.8945312 L3.3203125,66.8945312 C3.125,66.6992188 2.91341146,66.4388021 2.68554687,66.1132812 C2.45768229,65.7877604 2.37630208,65.625 2.44140625,65.625 L9.1796875,58.8867188 Z M26.3671875,47.265625 C26.4322917,47.3958333 26.5625,47.6074219 26.7578125,47.9003906 C26.953125,48.1933594 27.0507812,48.4049479 27.0507812,48.5351562 C27.1809896,48.6002604 27.2786458,48.811849 27.34375,49.1699219 C27.4088542,49.5279948 27.4739583,49.7395833 27.5390625,49.8046875 C27.6041667,49.9348958 27.750651,50.2604167 27.9785156,50.78125 C28.2063802,51.3020833 28.4505208,51.8717448 28.7109375,52.4902344 C28.9713542,53.108724 29.2317708,53.7109375 29.4921875,54.296875 C29.7526042,54.8828125 29.9479167,55.3059896 30.078125,55.5664062 C30.9895833,57.7148438 32.03125,59.4075521 33.203125,60.6445312 C34.375,61.8815104 35.6933594,62.7929688 37.1582031,63.3789062 C38.6230469,63.9648438 40.250651,64.3391927 42.0410156,64.5019531 C43.8313802,64.6647135 45.8007812,64.7460938 47.9492188,64.7460938 C51.7252604,64.7460938 55.1595052,64.1438802 58.2519531,62.9394531 C61.344401,61.735026 64.0950521,59.5703125 66.5039062,56.4453125 C66.5690104,56.3151042 66.6992188,56.0872396 66.8945312,55.7617188 C67.0898438,55.4361979 67.1875,55.2408854 67.1875,55.1757812 C67.96875,53.1575521 68.3919271,51.1230469 68.4570312,49.0722656 C68.5221354,47.0214844 68.5546875,44.921875 68.5546875,42.7734375 C68.5546875,42.578125 68.5546875,42.2200521 68.5546875,41.6992188 C68.5546875,41.1783854 68.5384115,40.625 68.5058594,40.0390625 C68.4733073,39.453125 68.4570312,38.8834635 68.4570312,38.3300781 C68.4570312,37.7766927 68.4570312,37.4023438 68.4570312,37.2070312 C68.3268229,36.4257812 68.0989583,35.3190104 67.7734375,33.8867188 C67.4479167,32.4544271 67.0247396,30.9733073 66.5039062,29.4433594 C65.9830729,27.9134115 65.3971354,26.4973958 64.7460938,25.1953125 C64.0950521,23.8932292 63.4114583,23.0143229 62.6953125,22.5585938 C62.6302083,22.5585938 62.4023438,22.5097656 62.0117188,22.4121094 C61.6210938,22.3144531 61.4257812,22.2330729 61.4257812,22.1679688 C61.3606771,22.1028646 61.2304688,21.891276 61.0351562,21.5332031 C60.8398438,21.1751302 60.6770833,20.9635417 60.546875,20.8984375 C60.4817708,20.7682292 60.3515625,20.5891927 60.15625,20.3613281 C59.9609375,20.1334635 59.7981771,20.0195312 59.6679688,20.0195312 C57.8450521,18.9127604 55.843099,18.0826823 53.6621094,17.5292969 C51.4811198,16.9759115 49.3164062,16.6992188 47.1679688,16.6992188 C44.2382812,16.6992188 41.4713542,17.1223958 38.8671875,17.96875 C36.2630208,18.8151042 33.968099,20.0683594 31.9824219,21.7285156 C29.9967448,23.3886719 28.4179688,25.4231771 27.2460938,27.8320312 C26.0742188,30.2408854 25.4882812,33.0078125 25.4882812,36.1328125 C25.4882812,37.9557292 25.5859375,39.7949219 25.78125,41.6503906 C25.9765625,43.5058594 26.171875,45.3776042 26.3671875,47.265625 Z M7.91015625,54.296875 C7.91015625,54.3619792 7.97526042,54.4433594 8.10546875,54.5410156 C8.23567708,54.6386719 8.30078125,54.7200521 8.30078125,54.7851562 C8.43098958,54.9153646 8.54492188,55.1432292 8.64257812,55.46875 C8.74023438,55.7942708 8.75651042,55.9895833 8.69140625,56.0546875 L2.05078125,62.6953125 C1.98567708,62.6953125 1.90429688,62.6464844 1.80664062,62.5488281 C1.70898438,62.4511719 1.62760417,62.3697917 1.5625,62.3046875 C1.49739583,62.1744792 1.46484375,62.0442708 1.46484375,61.9140625 C1.46484375,61.7838542 1.43229167,61.6536458 1.3671875,61.5234375 C1.30208333,61.328125 1.23697917,61.1653646 1.171875,61.0351562 L7.91015625,54.296875 Z M65.9179688,52.6367188 L66.1132812,53.0273438 C66.1132812,53.4830729 65.8854167,54.1015625 65.4296875,54.8828125 C64.9739583,55.6640625 64.4205729,56.4290365 63.7695312,57.1777344 C63.1184896,57.9264323 62.4674479,58.577474 61.8164062,59.1308594 C61.1653646,59.6842448 60.6445312,59.9609375 60.2539062,59.9609375 L60.2539062,58.4960938 L65.9179688,52.6367188 Z M7.12890625,49.8046875 L7.12890625,52.2460938 L1.171875,58.0078125 L0.87890625,58.0078125 L0.87890625,56.0546875 L7.12890625,49.8046875 Z M66.796875,46.3867188 L66.796875,47.4609375 C66.796875,47.7864583 66.813151,48.1119792 66.8457031,48.4375 C66.8782552,48.7630208 66.7643229,49.0559896 66.5039062,49.3164062 L60.546875,55.1757812 L60.546875,52.6367188 L66.796875,46.3867188 Z M6.73828125,44.3359375 L6.73828125,45.5078125 C6.73828125,46.2239583 6.72200521,46.6959635 6.68945312,46.9238281 C6.65690104,47.1516927 6.38020833,47.5260417 5.859375,48.046875 C5.46875,48.4375 4.98046875,48.9095052 4.39453125,49.4628906 C3.80859375,50.016276 3.25520833,50.5533854 2.734375,51.0742188 C2.08333333,51.7252604 1.46484375,52.3763021 0.87890625,53.0273438 L0.29296875,53.0273438 L0.29296875,50.5859375 L6.73828125,44.3359375 Z M66.796875,40.5273438 L66.796875,43.0664062 L60.546875,49.3164062 L60.546875,46.7773438 L66.796875,40.5273438 Z M6.25,39.2578125 C6.38020833,39.5833333 6.49414062,39.8763021 6.59179688,40.1367188 C6.68945312,40.3971354 6.73828125,40.6901042 6.73828125,41.015625 L6.73828125,41.40625 L0.29296875,47.65625 L0,47.65625 L0,45.5078125 L6.25,39.2578125 Z M59.6679688,42.1875 L66.5039062,35.546875 C66.5690104,35.6770833 66.6341146,35.953776 66.6992188,36.3769531 C66.7643229,36.8001302 66.796875,37.0768229 66.796875,37.2070312 C66.796875,37.2721354 66.7643229,37.4023438 66.6992188,37.5976562 C66.6341146,37.7929688 66.5690104,37.9557292 66.5039062,38.0859375 L60.2539062,44.3359375 C59.8632812,43.6848958 59.6679688,43.0989583 59.6679688,42.578125 L59.6679688,42.1875 Z M6.25,35.9375 L0,42.1875 L0,41.40625 C0,41.0807292 0.0162760417,40.7063802 0.048828125,40.2832031 C0.0813802083,39.860026 0.162760417,39.5182292 0.29296875,39.2578125 L6.25,33.3984375 L6.25,35.9375 Z M58.4960938,37.6953125 L64.7460938,31.25 L64.9414062,31.25 C65.2669271,31.25 65.4622396,31.4127604 65.5273438,31.7382812 C65.5924479,32.0638021 65.625,32.3242188 65.625,32.5195312 C65.625,32.7799479 65.608724,33.0078125 65.5761719,33.203125 C65.5436198,33.3984375 65.4296875,33.59375 65.234375,33.7890625 L59.6679688,39.2578125 L58.984375,39.6484375 C58.6588542,39.1927083 58.4960938,38.6067708 58.4960938,37.890625 L58.4960938,37.6953125 Z M6.73828125,30.078125 L0.87890625,35.9375 C1.00911458,35.2864583 1.18815104,34.5540365 1.41601562,33.7402344 C1.64388021,32.9264323 1.98567708,32.2916667 2.44140625,31.8359375 L7.421875,26.7578125 L6.73828125,30.078125 Z M56.8359375,33.7890625 L63.4765625,27.1484375 C63.5416667,27.1484375 63.6230469,27.2135417 63.7207031,27.34375 C63.8183594,27.4739583 63.8997396,27.5390625 63.9648438,27.5390625 C63.9648438,27.6692708 64.0299479,27.9296875 64.1601562,28.3203125 C64.2252604,28.515625 64.2903646,28.6783854 64.3554688,28.8085938 L57.7148438,35.546875 C57.1289062,35.2213542 56.8359375,34.7330729 56.8359375,34.0820312 L56.8359375,33.7890625 Z M60.546875,24.3164062 C60.6770833,24.1861979 60.8398438,24.0722656 61.0351562,23.9746094 C61.2304688,23.8769531 61.3606771,23.828125 61.4257812,23.828125 C61.4257812,23.8932292 61.5397135,24.0234375 61.7675781,24.21875 C61.9954427,24.4140625 62.1419271,24.5768229 62.2070312,24.7070312 C62.2070312,24.7070312 62.2395833,24.7721354 62.3046875,24.9023438 L62.2070312,25 L55.5664062,31.8359375 L54.296875,30.5664062 L60.546875,24.3164062 Z M58.1054688,21.2890625 C58.1705729,21.3541667 58.2682292,21.4192708 58.3984375,21.484375 L58.984375,21.7773438 L59.375,22.1679688 L59.375,22.4609375 L59.375,22.5585938 L52.5390625,29.296875 L51.3671875,28.0273438 L58.1054688,21.2890625 Z M53.8085938,19.6289062 L54.0039062,19.6289062 C54.0690104,19.6289062 54.1015625,19.6126302 54.1015625,19.5800781 C54.1015625,19.547526 54.1341146,19.53125 54.1992188,19.53125 C54.5247396,19.53125 54.8339844,19.5963542 55.1269531,19.7265625 C55.4199219,19.8567708 55.5664062,20.0846354 55.5664062,20.4101562 L55.5664062,20.8984375 L50.0976562,26.2695312 C49.9023438,26.5299479 49.6907552,26.6764323 49.4628906,26.7089844 C49.235026,26.7415365 48.9908854,26.7578125 48.7304688,26.7578125 C48.4049479,26.7578125 48.1445312,26.7415365 47.9492188,26.7089844 C47.7539062,26.6764323 47.4934896,26.5299479 47.1679688,26.2695312 L53.8085938,19.6289062 Z M33.7890625,25.5859375 C33.7239583,25.5859375 33.59375,25.6347656 33.3984375,25.7324219 C33.203125,25.8300781 33.0403646,25.8789062 32.9101562,25.8789062 C32.8450521,25.8789062 32.5520833,25.9440104 32.03125,26.0742188 C31.5104167,26.2044271 31.1197917,26.2695312 30.859375,26.2695312 L30.6640625,26.2695312 L30.46875,26.2695312 C30.5989583,26.0742188 30.8919271,25.7486979 31.3476562,25.2929688 C31.8033854,24.8372396 32.3079427,24.3489583 32.8613281,23.828125 C33.4147135,23.3072917 33.9355469,22.8027344 34.4238281,22.3144531 C34.9121094,21.8261719 35.2539062,21.484375 35.4492188,21.2890625 C35.9049479,20.9635417 36.5722656,20.6380208 37.4511719,20.3125 C38.3300781,19.9869792 39.0950521,19.7591146 39.7460938,19.6289062 L33.7890625,25.5859375 Z M49.3164062,18.75 L51.3671875,18.75 L51.3671875,19.140625 L45.1171875,25.5859375 L44.6289062,25.5859375 C44.3033854,25.5859375 44.0104167,25.5696615 43.75,25.5371094 C43.4895833,25.5045573 43.2291667,25.3255208 42.96875,25 L49.3164062,18.75 Z M42.96875,19.140625 C43.359375,18.8151042 43.8476562,18.6197917 44.4335938,18.5546875 C45.0195312,18.4895833 45.5403646,18.4570312 45.9960938,18.4570312 L46.2890625,18.4570312 L39.7460938,25 C39.6809896,25.0651042 39.6158854,25.0976562 39.5507812,25.0976562 C39.4856771,25.1627604 39.3229167,25.1953125 39.0625,25.1953125 C38.6067708,25.1953125 38.1184896,25.0325521 37.5976562,24.7070312 L42.96875,19.140625 Z" id="Shape" fill="#49A2A0" fill-rule="nonzero"></path>
                    </g>
                </g>
            </g>
        </g>
    </g>
</svg>